<?xml version="1.0" encoding="utf-8"?>
<!-- Generator: Adobe Illustrator 22.1.0, SVG Export Plug-In . SVG Version: 6.00 Build 0)  -->
<svg version="1.1" id="Layer_1" xmlns="http://www.w3.org/2000/svg" xmlns:xlink="http://www.w3.org/1999/xlink" xml:space="preserve">
<style type="text/css">
	.st0{clip-path:url(#SVGID_2_);fill:#FFFFFF;}
	.st1{clip-path:url(#SVGID_2_);fill:none;stroke:#88C241;}
	.st2{clip-path:url(#SVGID_2_);fill:#88C241;}
</style>
<g>
	<defs>
		<rect id="SVGID_1_" x="6.9" y="6.4" width="49" height="49"/>
	</defs>
	<clipPath id="SVGID_2_">
		<use xlink:href="#SVGID_1_"  style="overflow:visible;"/>
	</clipPath>
	<path class="st0" d="M31.4,54.9c13.2,0,24-10.8,24-24s-10.8-24-24-24s-24,10.8-24,24S18.2,54.9,31.4,54.9"/>
	<circle class="st1" cx="31.4" cy="30.9" r="24"/>
	<path class="st2" d="M45.3,35.4c-1.4,0.1-2.7,0.2-4.1,0.5c-3.1,0.6-5.9,1.9-8.2,4c-0.1,0.1-0.2,0.3-0.2,0.5c0,1.7,0,3.4,0,5
		c0,0.1,0,0.2,0,0.3c0.6-0.5,1.2-0.9,1.9-1.3c2.5-1.6,5.2-2.7,8.3-2.8c0.1,0,0.3-0.2,0.3-0.3c0.8-1.9,1.6-3.8,2.4-5.7
		c0-0.1,0.1-0.2,0.1-0.3C45.5,35.4,45.4,35.4,45.3,35.4 M30.1,40.3c0-0.1-0.1-0.3-0.2-0.4c-1.1-1-2.4-1.9-3.8-2.5
		c-2.2-1-4.5-1.6-6.9-1.9c-0.7-0.1-1.3-0.1-2-0.1c0,0.1,0,0.1,0,0.2c0.8,2,1.6,3.9,2.5,5.9c0,0.1,0.2,0.2,0.3,0.2
		c0.6,0.1,1.3,0.1,1.9,0.2c2.8,0.5,5.2,1.7,7.4,3.3c0.2,0.2,0.5,0.4,0.8,0.6C30.1,43.9,30.1,42.1,30.1,40.3 M36.9,21.6
		c0-3.1-2.5-5.5-5.5-5.5c-3.1,0-5.6,2.5-5.6,5.5c0,3.1,2.5,5.6,5.5,5.6S36.9,24.7,36.9,21.6 M40.4,34.2c-3.4,0.7-6.4,2-9,4.4
		c-2.6-2.3-5.7-3.7-9.1-4.4c0-1.2,0.4-2.3,1.1-3.3c1.1-1.3,2.5-2.1,4.2-2.1c2.5-0.1,5-0.1,7.5,0c2.8,0.1,5.2,2.5,5.2,5.2
		C40.4,34,40.4,34.1,40.4,34.2"/>
</g>
</svg>
