<svg xmlns="http://www.w3.org/2000/svg" width="88" height="88" viewBox="0 0 88 88" fill="none">
  <g clip-path="url(#clip0_11374_6482)">
    <path d="M111 22H23V110H111V22Z" fill="white"/>
    <path d="M67 88C75.2712 88 82 81.2712 82 73C82 64.7288 75.2712 58 67 58C58.7288 58 52 64.7294 52 73C52 81.2712 58.7288 88 67 88ZM67 60.5295C73.8762 60.5295 79.4705 66.1236 79.4705 73C79.4705 79.8764 73.8762 85.4705 67 85.4705C60.1238 85.4705 54.5295 79.8762 54.5295 73C54.5295 66.1238 60.124 60.5295 67 60.5295Z" fill="#00A2C0"/>
    <path d="M64.438 78.6445C64.6731 78.8729 64.9834 78.9998 65.3062 79C65.3205 79 65.3351 78.9998 65.3496 78.9993L65.3494 78.9991C65.687 78.9873 66.0058 78.8368 66.2356 78.5809L74.6612 69.2016C74.9695 68.8586 75.0771 68.3718 74.9438 67.9243C74.8102 67.477 74.4561 67.1372 74.0144 67.033C73.5726 66.9287 73.1109 67.0757 72.8026 67.4187L65.2446 75.8323L61.1363 71.8433C60.8063 71.5227 60.3357 71.4085 59.9021 71.5437C59.4683 71.6789 59.1372 72.0428 59.0336 72.4986C58.93 72.9542 59.0696 73.4322 59.3998 73.7529L64.438 78.6445Z" fill="#00A2C0"/>
  </g>
  <defs>
    <clipPath id="clip0_11374_6482">
      <rect width="88" height="88" fill="white"/>
    </clipPath>
  </defs>
</svg>