<?xml version="1.0" encoding="utf-8"?>
<!-- Generator: Adobe Illustrator 22.1.0, SVG Export Plug-In . SVG Version: 6.00 Build 0)  -->
<svg version="1.1" id="Layer_1" xmlns="http://www.w3.org/2000/svg" xmlns:xlink="http://www.w3.org/1999/xlink"  xml:space="preserve">
<style type="text/css">
	.st0{clip-path:url(#SVGID_2_);fill:#FFFFFF;}
	.st1{clip-path:url(#SVGID_2_);fill:#FFFFFF;stroke:#88C241;}
	
		.st2{clip-path:url(#SVGID_4_);fill:none;stroke:#8AC441;stroke-width:1.589;stroke-linecap:round;stroke-linejoin:round;stroke-miterlimit:10;}
	
		.st3{clip-path:url(#SVGID_4_);fill:none;stroke:#8AC441;stroke-width:1.6;stroke-linecap:round;stroke-linejoin:round;stroke-miterlimit:10;}
	.st4{clip-path:url(#SVGID_4_);fill:#FFFFFF;}
</style>
<g>
	<defs>
		<rect id="SVGID_1_" x="6.5" y="6.5" width="49" height="49"/>
	</defs>
	<use xlink:href="#SVGID_1_"  style="overflow:visible;fill:#FFFFFF;"/>
	<clipPath id="SVGID_2_">
		<use xlink:href="#SVGID_1_"  style="overflow:visible;"/>
	</clipPath>
	<path class="st0" d="M31,55c13.2,0,24-10.8,24-24S44.2,7,31,7S7,17.8,7,31S17.8,55,31,55"/>
	<circle class="st1" cx="31" cy="31" r="24"/>
</g>
<g>
	<defs>
		<rect id="SVGID_3_" x="12.7" y="10" width="42" height="42"/>
	</defs>
	<clipPath id="SVGID_4_">
		<use xlink:href="#SVGID_3_"  style="overflow:visible;"/>
	</clipPath>
	<path class="st2" d="M41,45H19.9c-0.5,0-1-0.4-1-1V18c0-0.5,0.4-1,1-1H41c0.5,0,1,0.4,1,1v26C42,44.5,41.6,45,41,45z"/>
	<line class="st3" x1="22.8" y1="22.6" x2="37.7" y2="22.6"/>
	<line class="st2" x1="22.8" y1="26.9" x2="37.7" y2="26.9"/>
	<line class="st3" x1="22.8" y1="31.3" x2="30.5" y2="31.3"/>
	<line class="st3" x1="22.8" y1="35.7" x2="30.5" y2="35.7"/>
	<line class="st3" x1="22.8" y1="40.1" x2="30.5" y2="40.1"/>
	<rect x="33.6" y="29" transform="matrix(0.602 -0.7985 0.7985 0.602 -8.8165 44.9091)" class="st4" width="14.1" height="4.5"/>
	<rect x="33.6" y="29" transform="matrix(0.602 -0.7985 0.7985 0.602 -8.8165 44.9091)" class="st3" width="14.1" height="4.5"/>
	<path class="st4" d="M46.7,27l-3.6-2.7l1.2-1.6c0.6-0.8,1.7-0.9,2.5-0.4l0.7,0.6c0.8,0.6,0.9,1.7,0.4,2.5L46.7,27z"/>
	<path class="st3" d="M46.7,27l-3.6-2.7l1.2-1.6c0.6-0.8,1.7-0.9,2.5-0.4l0.7,0.6c0.8,0.6,0.9,1.7,0.4,2.5L46.7,27z"/>
	<polygon class="st4" points="34,39.9 34.5,35.7 38.1,38.4 	"/>
	<polygon class="st3" points="34,39.9 34.5,35.7 38.1,38.4 	"/>
</g>
</svg>
