<?xml version="1.0" encoding="utf-8"?>
<!-- Generator: Adobe Illustrator 22.1.0, SVG Export Plug-In . SVG Version: 6.00 Build 0)  -->
<svg version="1.1" id="Layer_1" xmlns="http://www.w3.org/2000/svg" xmlns:xlink="http://www.w3.org/1999/xlink" x="0px" y="0px"
	 viewBox="0 0 28.5 29.7" style="enable-background:new 0 0 28.5 29.7;" xml:space="preserve">
<style type="text/css">
	.st0{fill:#FFFFFF;}
</style>
<g>
	<path class="st0" d="M23.3,18.1c-3.4,0.7-6.4,2-9,4.4c-2.6-2.3-5.7-3.7-9.1-4.4c0-1.2,0.4-2.3,1.1-3.3c1.1-1.3,2.5-2.1,4.2-2.1
		c2.5-0.1,5-0.1,7.5,0c2.8,0.1,5.2,2.5,5.2,5.2C23.3,17.9,23.3,18,23.3,18.1 M19.8,5.5c0-3.1-2.5-5.5-5.5-5.5
		c-3.1,0-5.6,2.5-5.6,5.5c0,3.1,2.5,5.6,5.5,5.6C17.3,11.1,19.8,8.6,19.8,5.5 M12.9,24.2c0-0.1-0.1-0.3-0.2-0.4
		c-1.1-1-2.4-1.9-3.8-2.5c-2.2-1-4.5-1.6-6.9-1.9c-0.7-0.1-1.3-0.1-2-0.1c0,0.1,0,0.1,0,0.2c0.8,2,1.6,3.9,2.5,5.9
		c0,0.1,0.2,0.2,0.3,0.2c0.6,0.1,1.3,0.1,1.9,0.2c2.8,0.5,5.2,1.7,7.4,3.3c0.2,0.2,0.5,0.4,0.8,0.6C12.9,27.8,12.9,26,12.9,24.2
		 M28.1,19.3c-1.4,0.1-2.7,0.2-4.1,0.5c-3.1,0.6-5.9,1.9-8.2,4c-0.1,0.1-0.2,0.3-0.2,0.5c0,1.7,0,3.4,0,5c0,0.1,0,0.2,0,0.3
		c0.6-0.5,1.2-0.9,1.9-1.3c2.5-1.6,5.2-2.7,8.3-2.8c0.1,0,0.3-0.2,0.3-0.3c0.8-1.9,1.6-3.8,2.4-5.7c0-0.1,0.1-0.2,0.1-0.3
		C28.3,19.3,28.2,19.3,28.1,19.3"/>
</g>
</svg>
