<?xml version="1.0" encoding="utf-8"?>
<!-- Generator: Adobe Illustrator 22.1.0, SVG Export Plug-In . SVG Version: 6.00 Build 0)  -->
<svg version="1.1" id="Layer_1" xmlns="http://www.w3.org/2000/svg" xmlns:xlink="http://www.w3.org/1999/xlink" x="0px" y="0px"
	 viewBox="0 0 60.5 823.4" style="enable-background:new 0 0 60.5 823.4;" xml:space="preserve">
<style type="text/css">
	.st0{fill:#E8C3BC;}
	.st1{fill:#F05925;}
</style>
<g>
	<path class="st0" d="M22.7,1.5c-7.3,38.6-9.5,78.3-9.2,117.8C16.9,326,63.2,533.5,30.7,740.1c-5.5,35-13.3,69.6-24,103.3L0,841
		c75.9-238.8,8.6-490.6,6.9-735C7.2,70.6,9.4,35,15.8,0L22.7,1.5z"/>
	<path class="st1" d="M27.7,1.5c-8.3,42.8-10.1,87.2-9.5,131C23.3,334.8,66.5,537.8,35.3,740c-5.4,35-13.1,69.6-23.7,103.4L5,841
		c65.2-203.3,26.5-420.4,11.5-629C11.6,141.5,8.4,70,20.8,0L27.7,1.5"/>
</g>
</svg>
