<?xml version="1.0" encoding="utf-8"?>
<!-- Generator: Adobe Illustrator 22.1.0, SVG Export Plug-In . SVG Version: 6.00 Build 0)  -->
<svg version="1.1" id="Layer_1" xmlns="http://www.w3.org/2000/svg" xmlns:xlink="http://www.w3.org/1999/xlink" xml:space="preserve">
<style type="text/css">
	
		.st0{fill:none;stroke:#E7C2BB;stroke-width:2;stroke-linecap:round;stroke-linejoin:round;stroke-miterlimit:10;stroke-dasharray:6,8; height: 100%;}
	.st1{fill:#FFFFFF;}
	.st2{fill:#F05925;}
</style>
<path class="st0" d="{strokePath}"/>
<path class="st1" d="M55.1,69l3.4-8.9L65,65c0.3,0.1,0.3,0.5,0,0.8l-8.1,4.7C55.9,70.9,54.8,70,55.1,69"/>
<path class="st2" d="M56.2,68.8c1-2.6,2.1-5.2,3-7.8c0.1-0.4,0.3-0.8,0.4-1.1c-0.7,0.1-1.2,0.3-1.9,0.5c2.1,1.6,4.2,3.1,6.3,4.8
	c0.1,0,0.1,0.1,0.3,0.1c0,0,0.1,0.1,0,0.1c0,0,0.3,0.3,0.1,0c0-0.1,0.1-0.1,0,0h-0.1c-0.4,0.3-0.8,0.5-1.4,0.7
	c-1.5,0.8-3,1.6-4.5,2.6l-1.9,1.1c0,0-0.3,0.1-0.4,0.1c0-0.1,0.4-0.1,0.4-0.1l-0.3-0.1C56.1,69.5,56.1,69.2,56.2,68.8
	c0.1-0.8-1.8-0.4-1.9,0.3c-0.1,0.7,0.1,1.4,0.7,1.6c0.7,0.4,1.6,0.4,2.3,0.1c0.4-0.1,0.8-0.4,1.2-0.7c1.6-1,3.1-1.8,4.8-2.7
	c0.7-0.4,1.4-0.8,1.9-1.1s1.2-0.5,1.1-1.2c0-0.5-0.5-0.8-1-1.1c-0.7-0.5-1.4-1-2.1-1.5l-3.8-2.9c-0.5-0.4-1.6-0.1-1.9,0.5
	c-1,2.6-2.1,5.2-3,7.8c-0.1,0.4-0.3,0.8-0.4,1.1c-0.1,0.4,0.7,0.5,0.8,0.4C55.5,69.5,55.9,69.4,56.2,68.8"/>
<path class="st2" d="M75.7,39.2c0.4-0.7,0.8-1.2,1.1-1.9c0.4-0.7,1-1.4,0.8-2.3c-0.3-1.1-1.4-1.8-2.5-2.2c-1.4-0.4-3.3-0.4-4.4,0.8
	c-2.1,2.2-3.8,4.5-5.8,6.7c-0.1,0.1-0.3,0.3-0.4,0.4c-0.3,0.1-0.7,0-0.8,0c-0.4-0.1-0.8-0.3-1.1-0.3c-0.5-0.1-1.4-0.3-1.9,0
	c-0.4,0.1-0.5,1,0,1.1c1.9,0.5,4.5,1.5,6.3,0c0.8-0.7,1.5-1.6,2.2-2.5c1.1-1.4,2.3-2.6,3.4-4c0.3-0.4,1.1-0.5,1.5-0.4
	c1.1,0.5,0.8,1.4,0.3,2.2c-0.4,0.7-0.8,1.4-1.2,2.1C72.8,39.4,75.2,39.8,75.7,39.2"/>
<path class="st1" d="M82.1,43.9l-7.8-5.8l4.4-6c1.2-1.6,3.7-2.1,5.3-0.8l1.6,1.2c1.6,1.2,2.1,3.6,0.8,5.3L82.1,43.9z"/>
<path class="st2" d="M83.1,43.6c-2.6-1.9-5.2-3.8-7.8-5.8c0,0.1,0,0.3,0,0.4c1-1.2,1.8-2.5,2.7-3.7c0.5-0.7,1-1.4,1.5-2.1
	c0.4-0.5,1-1.2,1.8-1.4c1.1-0.1,1.9,0.5,2.7,1.1c1,0.7,1.8,1.2,2.2,2.3c0.4,1.1,0.1,2.3-0.5,3.3c-0.4,0.5-0.8,1.1-1.2,1.6
	c-1.1,1.4-2.1,2.9-3.1,4.2c-0.3,0.4,0.3,0.5,0.5,0.5c0.4,0,1.1-0.1,1.4-0.5c1-1.4,2.1-2.7,3-4.1c1.2-1.6,2.7-3.3,2.1-5.5
	c-0.4-1.2-1.2-1.9-2.3-2.7c-1-0.7-1.9-1.4-3.3-1.5c-1.8-0.1-3.6,0.5-4.7,1.8c-0.4,0.4-0.7,1-1.1,1.5c-1.2,1.6-2.3,3.1-3.6,4.8
	c-0.1,0.1-0.1,0.3,0,0.4l7.8,5.8c0.4,0.3,1,0.1,1.4,0C82.6,44.3,83.5,43.9,83.1,43.6"/>
<path class="st2" d="M65.2,65.8l-6.6-5.8l6.4-9.6l10.7-14.4c0,0,2.1,2.5,2.9,3.1c1.1,0.8,5.1,2.6,5.1,2.6L71,59L65.2,65.8z"/>
<path class="st2" d="M66.1,65.4c-2.2-1.9-4.4-3.8-6.6-5.8c0,0.1,0,0.3,0,0.4c2.2-3.1,4.2-6.4,6.4-9.6c2.5-3.4,5.1-6.7,7.5-10.1
	c1.1-1.4,2.2-2.9,3.1-4.2c-0.5,0.1-1.2,0.3-1.8,0.4c1.1,1.2,2.1,2.6,3.6,3.6c1.5,0.8,3,1.5,4.5,2.2c0-0.1-0.1-0.3-0.1-0.4
	c-2.5,3.3-4.9,6.7-7.5,10c-2.1,2.7-4.1,5.6-6.3,8.4c-1.6,1.9-3.1,3.8-4.8,5.8c-0.3,0.4,0.3,0.5,0.5,0.5c0.4,0,1-0.1,1.4-0.5
	c2.2-2.6,4.4-5.1,6.3-7.8c3-4.1,6.2-8.2,9.2-12.3c1-1.4,1.9-2.6,3-4c0.1-0.1,0.1-0.4-0.1-0.4c-1.5-0.7-3-1.4-4.4-2.2
	c-1.4-0.8-2.5-2.2-3.4-3.4c-0.4-0.4-1.5,0-1.8,0.4c-4.5,6-9.2,12-13.4,18.3c-1.2,1.9-2.5,3.7-3.8,5.6c-0.1,0.1-0.1,0.3,0,0.4
	c2.2,1.9,4.4,3.8,6.6,5.8C64.7,66.5,66.6,65.8,66.1,65.4"/>
</svg>
