<?xml version="1.0" encoding="utf-8"?>
<!-- Generator: Adobe Illustrator 22.1.0, SVG Export Plug-In . SVG Version: 6.00 Build 0)  -->
<svg version="1.1" id="Layer_1" xmlns="http://www.w3.org/2000/svg" xmlns:xlink="http://www.w3.org/1999/xlink" x="0px" y="0px"
	 viewBox="0 0 519.9 613.9" style="enable-background:new 0 0 519.9 613.9;" xml:space="preserve">
<style type="text/css">
	.st0{fill:none;stroke:#231F20;stroke-width:0.75;stroke-miterlimit:10;}
	.st1{fill:#FFFFFF;}
	.st2{fill:#8DC9D9;}
	.st3{fill:#E8C3BC;}
	.st4{fill:#F05925;}
	.st5{fill:none;}
</style>
<g>
	<line class="st0" x1="8.1" y1="101.8" x2="519.9" y2="101.8"/>
	<line class="st0" x1="8.1" y1="69.8" x2="519.9" y2="69.8"/>
	<line class="st0" x1="8.1" y1="37.8" x2="519.9" y2="37.8"/>
	<line class="st0" x1="8.1" y1="133.8" x2="519.9" y2="133.8"/>
	<line class="st0" x1="8.1" y1="165.8" x2="519.9" y2="165.8"/>
	<line class="st0" x1="8.1" y1="197.9" x2="519.9" y2="197.9"/>
	<line class="st0" x1="8.1" y1="229.9" x2="519.9" y2="229.9"/>
	<line class="st0" x1="8.1" y1="261.9" x2="519.9" y2="261.9"/>
	<line class="st0" x1="8.1" y1="293.9" x2="519.9" y2="293.9"/>
	<line class="st0" x1="8.1" y1="325.9" x2="519.9" y2="325.9"/>
	<line class="st0" x1="8.1" y1="357.9" x2="519.9" y2="357.9"/>
	<line class="st0" x1="8.1" y1="389.9" x2="519.9" y2="389.9"/>
	<line class="st0" x1="8.1" y1="421.9" x2="519.9" y2="421.9"/>
	<line class="st0" x1="8.1" y1="453.9" x2="519.9" y2="453.9"/>
	<line class="st0" x1="8.1" y1="485.9" x2="519.9" y2="485.9"/>
	<line class="st0" x1="8.1" y1="517.9" x2="519.9" y2="517.9"/>
	<line class="st0" x1="8.1" y1="549.9" x2="519.9" y2="549.9"/>
	<line class="st0" x1="8.1" y1="581.9" x2="519.9" y2="581.9"/>
	<line class="st0" x1="8.1" y1="613.9" x2="519.9" y2="613.9"/>
	<rect class="st1" width="86" height="86"/>
	<path class="st2" d="M19.6,37.1c3.7-0.9,7.4-1.1,11.1-0.3c1.7,0.4,3.3,1,4.8,1.9c0.8,0.5,1.8,0,1.7-0.8c0-0.4-0.4-0.8-0.8-1.1
		c-3.3-2-6.9-2.6-10.7-2.6c0-0.1,0-0.1,0-0.2c-2.3,0.4-4.6,0.7-6.9,1.1c-0.8,0.1-1.1,0.6-1,1.3C18.1,37,18.7,37.3,19.6,37.1"/>
	<path class="st3" d="M71.9,30c-0.5,0-0.9,0-1.4,0l-57.9,0.5c-0.5,0-1,0-1.4,0c-2.8,0.1-4.6,1.8-4.6,4.7c0.1,12.2,0.2,24.3,0.3,36.5
		c0,2.8,1.8,4.6,4.6,4.5c20.3-0.2,40.5-0.4,60.8-0.5c2.8,0,4.6-1.8,4.6-4.6c-0.1-12.2-0.2-24.3-0.3-36.5C76.5,31.8,74.7,30,71.9,30
		 M59.5,35c-0.9,1.8-2.3,3.2-3.9,4.5c-0.4-2-0.4-4,0-6C57,34,58.2,34.5,59.5,35 M15,66.1c0-0.3,0-0.6,0-0.8
		c-0.1-11.5-0.2-23.1-0.3-34.6l25.8,2.6c0.1,11.4,0.2,22.8,0.3,34.3c0,0.3,0,0.5,0,0.9C32.4,64.4,23.9,64,15,66.1 M43,68.5
		c0-0.3,0-0.5,0-0.7c-0.1-11.5-0.2-22.9-0.3-34.4L53.8,32c-0.5,1.6-0.8,3.3-0.7,5c0.1,1.1,0.2,2.2,0.3,3.3c-1.5,0.4-3,0.8-4.4,1.3
		c-0.9,0.3-1.8,0.8-2.6,1.3c-0.6,0.4-0.8,1-0.5,1.5c0.3,0.6,0.9,0.7,1.6,0.3c1.8-1.1,3.7-1.8,5.8-2.1c0.3,0,0.5-0.1,0.8-0.1
		c1.1,0.2,1.7-0.5,2.4-1c2.4-1.8,4.4-4,5.5-6.8c0.5-1.3,1-2.6,1.5-3.9l4.7-0.6c0.1,11.5,0.2,23,0.3,34.5c0,0.3,0,0.6,0,0.9
		C59.7,63.7,51.2,64.2,43,68.5"/>
	<path class="st2" d="M33.7,57.1c-1.3-0.9-2.7-1.9-4.1-2.8c0.2-0.2,0.4-0.3,0.7-0.5c1.2-0.8,2.3-1.7,3.5-2.5c0.6-0.4,0.6-1,0.3-1.5
		c-0.4-0.5-0.9-0.5-1.5-0.2c-0.2,0.1-0.4,0.3-0.6,0.5c-1,0.7-1.9,1.4-3,2.2c0-0.4,0-0.6,0-0.8c0-1,0-2.1,0-3.1c0-0.2,0-0.4,0-0.6
		c-0.1-0.6-0.6-1-1.1-0.9c-0.6,0.1-1,0.5-1,1.2c0,1.4,0,2.7,0,4.3c-1.3-0.9-2.4-1.7-3.6-2.5c-0.7-0.5-1.3-0.4-1.7,0.1
		c-0.4,0.5-0.2,1.2,0.4,1.6c1,0.7,2,1.4,3.1,2.1c0.3,0.2,0.6,0.4,1,0.7c-0.2,0.1-0.3,0.2-0.4,0.3c-1.2,0.9-2.4,1.7-3.6,2.6
		c-0.6,0.4-0.8,1.1-0.4,1.6c0.4,0.5,1,0.6,1.7,0.2c0.5-0.3,1-0.7,1.5-1.1c0.7-0.5,1.3-0.9,2-1.4c0.1,0.1,0.1,0.1,0.1,0.2
		c0,1.3,0,2.6,0.1,3.9c0,0.8,0.4,1.3,1.1,1.3c0.7,0,1.1-0.4,1.1-1.3c0-0.9,0-1.8,0-2.7c0-0.5,0-0.9,0-1.5c1.3,0.9,2.5,1.7,3.6,2.5
		c0.5,0.3,1,0.4,1.5,0C34.5,58.4,34.4,57.7,33.7,57.1"/>
	<path class="st2" d="M36.7,43c-3.3-2-7-2.6-11.7-2.6c-1.5,0-3.8,0.3-6.1,0.9c-0.7,0.2-1,0.6-0.9,1.2c0.1,0.7,0.7,1,1.6,0.8
		c3.8-0.9,7.6-1.2,11.5-0.3c1.6,0.4,3.1,1.2,4.7,1.8c0.8,0.3,1.6,0.1,1.7-0.7C37.5,43.6,37.2,43.3,36.7,43"/>
	<path class="st2" d="M47.9,56.8c3.4-1,6.8-1.5,10.3-1.6c2,0,3.9,0.1,5.9,0.1c0.8,0.1,1.2-0.2,1.3-0.9c0-0.6-0.3-1-1.1-1.1
		c-5.7-0.6-11.4-0.2-17,1.4c-1.1,0.3-1.5,0.8-1.3,1.5C46.2,57,46.8,57.2,47.9,56.8"/>
	<path class="st2" d="M47.4,50.7c0.1,0,0.3-0.1,0.4-0.1c2.8-0.8,5.6-1.4,8.5-1.5c2.5-0.1,5.1,0,7.6,0.1c0.8,0,1.3-0.3,1.3-0.9
		c0.1-0.6-0.4-1.1-1.1-1.2c-1.7-0.1-3.5-0.2-5.7-0.4c-2,0.2-4.5,0.4-6.9,0.8c-1.6,0.2-3.2,0.7-4.8,1.1c-0.7,0.2-1.1,0.7-0.9,1.3
		C46.1,50.6,46.7,50.9,47.4,50.7"/>
	<path class="st2" d="M64.1,59.6c-1.7-0.2-3.3-0.2-5.6-0.4c-2.1,0.2-4.7,0.5-7.4,0.9c-1.5,0.2-2.9,0.7-4.3,1.1
		c-0.6,0.2-0.9,0.6-0.7,1.2c0.1,0.6,0.6,0.9,1.1,0.8c0.3,0,0.5-0.1,0.7-0.2c3-0.9,6.1-1.5,9.2-1.5c2.3,0,4.7,0.1,7,0.2
		c0.4,0,0.9-0.2,1.1-0.5c0.2-0.2,0.2-0.8,0-1C65,59.9,64.5,59.6,64.1,59.6"/>
	<path class="st4" d="M11.1,29.5c0-0.5,0.3-1,0.8-1.2c2.1-0.7,8-2.5,13.3-2c7.4,0.7,12.5,3.2,14.1,4.1c0.4,0.2,0.8,0.2,1.1,0
		c1.7-1,6.9-3.7,12.3-4.1c5.7-0.5,11.8,1.2,14.1,1.9c0.6,0.2,1,0.7,1,1.4c0.1,5.6,0.6,32.1,0.7,38.7c0,0.8-0.7,1.3-1.4,1.2
		c-2.8-0.6-9.1-1.7-15.2-0.8c-2.9,0.5-9.4,3-11,3.6c-0.2,0.1-0.5,0.1-0.8,0c-1.9-0.5-10.4-2.9-13.5-3.4c-4.2-0.6-9.7,0.6-12.2,1.2
		c-0.7,0.2-1.4-0.3-1.5-1.1L11.1,29.5z"/>
	<path class="st1" d="M13.3,25.9c0-0.5,0.3-1,0.8-1.2c2.1-0.7,8-2.5,13.3-2c7.4,0.7,12.5,3.2,14.1,4.1c0.4,0.2,0.8,0.2,1.1,0
		c1.7-1,6.9-3.7,12.3-4.1c5.7-0.5,11.8,1.2,14.1,1.9c0.6,0.2,1,0.7,1,1.4c0.1,5.6,0.6,32.1,0.7,38.7c0,0.8-0.7,1.3-1.4,1.2
		c-2.8-0.6-9.1-1.7-15.2-0.8c-2.9,0.5-9.4,3-11,3.6c-0.2,0.1-0.5,0.1-0.8,0c-1.9-0.5-10.4-2.9-13.5-3.4c-4.2-0.6-9.7,0.6-12.2,1.2
		c-0.7,0.2-1.4-0.3-1.5-1.1L13.3,25.9z"/>
	<path class="st4" d="M14.7,25.7c0-0.5-0.2-0.2,0.1-0.5c0.1-0.1,0.4-0.1,0.5-0.1c0.5-0.1,0.9-0.3,1.4-0.4c1.2-0.3,2.4-0.6,3.6-0.8
		c3-0.5,5.9-0.5,8.8,0c2.5,0.4,4.9,1.1,7.2,1.9c1.3,0.5,2.6,1.2,3.9,1.8c1.9,0.8,3.8-0.7,5.5-1.5c2.3-1.1,4.8-2,7.4-2.4
		c3-0.5,6-0.2,9,0.3c1.2,0.2,2.3,0.4,3.4,0.7c0.7,0.2,2,0.3,2.6,0.8c0.7,0.6,0.4,2.5,0.4,3.3c0,1.4,0.1,2.9,0.1,4.3
		c0.1,3.8,0.1,7.5,0.2,11.3c0.1,6.7,0.4,13.5,0.4,20.2c0,0.1,0,0.3,0,0.3c-0.1,0.3,0,0.4,0.4,0.2c0.5,0,0.6,0,0.3-0.1
		c-0.4-0.2-1.1-0.2-1.5-0.3c-1.4-0.2-2.7-0.4-4.1-0.6c-3.2-0.3-6.5-0.4-9.7,0.1c-2.3,0.3-4.4,1.1-6.6,1.8c-1.8,0.6-3.7,1.7-5.6,2.1
		c0.4,0,0.7-0.1,1.1-0.1c-1.2-0.1-2.3-0.6-3.4-0.9c-1.6-0.4-3.2-0.9-4.8-1.3c-3.3-0.8-6.5-1.6-10-1.4c-2,0.1-4.1,0.4-6.1,0.8
		c-0.8,0.2-1.7,0.5-2.4,0.5c-0.5,0,0.1,0.1,0-0.1c-0.2-0.2-0.2-0.4-0.3-0.6c0,0,0,0,0,0c-0.1-0.8-0.1-1.7-0.1-2.5
		c-0.4-9.5-0.9-18.9-1.3-28.4c-0.1-3-0.3-5.9-0.4-8.9c0-0.8-2.9-0.3-2.9,0.8c0.4,9.3,0.9,18.7,1.3,28c0.2,3.8,0.2,7.7,0.5,11.5
		c0.1,1,0.7,1.6,1.7,1.7c0.9,0.1,1.8-0.2,2.7-0.4c1.1-0.3,2.2-0.5,3.4-0.6c2.3-0.3,4.7-0.5,7-0.1c1.8,0.3,3.6,0.8,5.4,1.2
		c1.8,0.5,3.7,1,5.5,1.5c1.6,0.4,2.8,0.9,4.5,0.3c3.3-1.2,6.6-2.8,10-3.4c2.9-0.5,5.9-0.4,8.8-0.1c2,0.2,4,0.8,6.1,0.9
		c1,0.1,2.1-0.2,2.8-0.9c0.6-0.6,0.6-1.2,0.6-1.9c0-1.1,0-2.3-0.1-3.4C72,53.2,71.8,46,71.7,38.9c-0.1-3.3-0.1-6.5-0.2-9.8
		c0-1,0-2.1-0.1-3.1c-0.1-1.9-1.6-2.1-3.1-2.6c-5-1.4-10.3-2.1-15.5-1.2c-2.5,0.5-5,1.2-7.3,2.3c-0.9,0.4-1.7,0.8-2.6,1.2
		c-0.3,0.2-0.6,0.3-0.9,0.5c-0.7,0.5,0.4-0.4,0.5-0.1c0-0.1-0.3-0.2-0.4-0.2c-1-0.9-2.8-1.3-4.1-1.8c-2.2-0.8-4.5-1.4-6.8-1.8
		c-5.2-0.9-10.3-0.5-15.3,0.9c-1.5,0.4-4.1,0.8-4.2,2.7C11.8,27.1,14.7,26.6,14.7,25.7"/>
	<path class="st4" d="M40.9,27.5c1.3,8.5,1.4,17.2,1.3,25.7c-0.1,5.1-0.3,10.1-0.6,15.2c-0.1,1.1,2.1,0.7,2.2-0.2
		c0.9-12.9,1-26.1-0.4-39c-0.1-0.8-0.2-1.5-0.3-2.3C42.9,26,40.8,26.5,40.9,27.5"/>
	<path class="st4" d="M47.6,49.3c-0.2,0.2,0.2-0.2,0.2-0.2c0.2-0.2,0.5-0.3,0.6-0.5c0.3-0.2,0.2-0.2-0.4,0.1c0.1,0,0.3,0.1,0.4,0.1
		c0.3,0.1,0.6,0.2,0.9,0.3c1,0.3,2.3,0.2,3-0.6c0.2-0.2,0.4-0.5,0.4-0.7c0.4-0.5,0-0.4-1.1,0.1c0.1,0.1,0.2,0.2,0.3,0.2
		c0.4,0.3,0.7,0.8,1.2,0.9c1,0.4,2.2-0.2,2.7-1.1c0.1-0.2,0.2-0.4,0.3-0.6c0.1-0.1,0.1-0.2,0.2-0.4c-1.1,0.1-1.4,0.2-0.8,0.4
		c0.5,0.3,1.1,0.6,1.6,0.8c1.1,0.5,2.2,0.3,3.2-0.3c0.2-0.1,0.5-0.3,0.7-0.5c0.1-0.1,0.7-0.4,0.8-0.5c-0.7,0-0.9,0.1-0.5,0.2
		c0.1,0.1,0.3,0.1,0.4,0.2c0.3,0.2,0.6,0.4,0.9,0.5c1.2,0.7,2.2,0.9,3.6,0.4c0.3-0.1,0.8-0.4,0.6-0.8c-0.2-0.3-1.2,0-1.4,0
		c0.4-0.1,0-0.1-0.2-0.2c-0.3-0.1-0.5-0.2-0.7-0.4c-0.4-0.2-0.8-0.5-1.2-0.7c-0.9-0.4-1.9-0.2-2.7,0.3c-0.4,0.2-0.8,0.5-1.2,0.8
		c-0.1,0.1-0.7,0.6-0.2,0.3c0.4-0.3,0.3,0,0.1-0.1c-0.1-0.1-0.3-0.1-0.4-0.2c-0.8-0.4-1.5-0.9-2.5-0.9c-0.9,0-1.7,0.5-2.2,1.3
		c-0.1,0.2-0.3,0.4-0.3,0.6c0,0.1-0.2,0.2-0.2,0.3c-0.1-0.4,1.5,0.3,1.2-0.3c-0.1-0.3-0.8-0.7-1-0.9c-0.7-0.6-1.7-0.5-2.5,0
		c-0.3,0.2-0.5,0.5-0.8,0.9c-0.2,0.4-0.5,0.5,0.2,0.3c0.8-0.3,0.2-0.2-0.2-0.4c-1.1-0.4-2-0.6-3.1-0.1c-0.8,0.3-1.4,0.9-2,1.5
		c-0.4,0.4,0.3,0.5,0.6,0.5C46.7,49.9,47.2,49.7,47.6,49.3"/>
	<path class="st4" d="M19.3,29.8c0.3-0.3,0.6-0.6,0.9-0.9c0.4-0.4-0.1,0.7-0.6,0.1c0.1,0.1,0.4,0.1,0.4,0.1c0.4,0.1,0.8,0.2,1.2,0.3
		c0.7,0.1,1.4,0.2,2.1-0.1c0.3-0.1,0.6-0.3,0.9-0.5c0.1-0.1,0.2-0.2,0.3-0.3c0.4-0.5,0.4-0.2-0.3-0.1c-0.2,0-0.5,0-0.7,0
		c0.7,0.2,0.9,1.3,1.6,1.6c0.8,0.3,1.8-0.1,2.4-0.6c0.3-0.3,0.6-0.7,0.8-1c0,0,0.1-0.1,0.1-0.1c-1.1,0-1.4,0.1-0.9,0.3
		c0.1,0.2,0.4,0.3,0.6,0.4c0.6,0.5,1.2,1.1,2.1,1.2c1,0.1,1.9-0.4,2.7-0.8c0,0,0.6-0.3,0.6-0.3c-0.4-0.1-0.6-0.1-0.4,0
		c0,0,0.1,0.1,0.1,0.1c0.1,0.3,0.4,0.5,0.6,0.8c0.8,1.3,1.4,2.7,3.2,2.4c0.3,0,1.2-0.3,1.3-0.7c0-0.4-0.6-0.4-0.9-0.3
		c0.3,0,0,0-0.1-0.2c-0.1-0.1-0.2-0.2-0.3-0.4c-0.3-0.4-0.5-0.8-0.7-1.2c-0.3-0.6-0.7-1.3-1.4-1.5c-1-0.3-2.1,0.2-2.9,0.7
		c-0.2,0.1-0.4,0.3-0.6,0.3c0.5-0.1,0.1-0.2-0.2-0.4c-0.4-0.3-0.8-0.7-1.3-1c-0.8-0.5-1.8-0.5-2.7,0c-0.4,0.2-0.7,0.5-0.9,0.9
		c0,0-0.5,0.5-0.4,0.6c0-0.1,1.1-0.1,1-0.3c0,0-0.3-0.3-0.3-0.4c-0.6-0.8-1.1-1.3-2.2-1.1c-0.5,0.1-0.9,0.3-1.3,0.7
		c-0.1,0.1-0.3,0.3-0.4,0.5c0,0,0,0.1-0.1,0.1c-0.2,0.2,0,0.2,0.6-0.1c0,0-0.4-0.1-0.5-0.1c-1.2-0.3-2.1-0.6-3.3-0.1
		c-0.7,0.4-1.4,1-1.9,1.6c-0.3,0.4,0.3,0.5,0.6,0.5C18.4,30.4,19,30.2,19.3,29.8"/>
	<path class="st4" d="M47.6,62.3c0.2-0.3,0.3-0.5,0.5-0.8c0.1-0.2,0.4-0.4,0.5-0.6c0.1-0.1,0.2-0.2,0.2-0.2c-0.9,0-1.2,0.1-0.8,0.4
		c0.7,0.9,2,0.9,2.9,0.3c0.4-0.3,0.9-0.7,1.3-1.1c0.6-0.6-0.2,0.5-0.5,0c0.1,0.1,0.8,0.3,0.9,0.3c0.6,0.2,1.3,0.4,1.9,0.2
		c0.3-0.1,1.5-0.5,1.6-0.9c0.2-0.1,0.1-0.2-0.3,0c0.1,0.1,0.3,0.1,0.4,0.2c0.3,0.2,0.6,0.4,0.8,0.6c0.5,0.3,1.1,0.6,1.7,0.5
		c0.6,0,1.1-0.2,1.5-0.6c0.2-0.2,0.4-0.4,0.6-0.6c0.1-0.1,0.2-0.2,0.3-0.3c0.3-0.2,0.1-0.2-0.6,0.1c0,0,0.8,0.7,0.9,0.8
		c0.2,0.3,0.4,0.6,0.6,0.8c0.3,0.3,0.8,0.3,1.2,0.3c0.6-0.1,1.1-0.3,1.6-0.7c0.2-0.2,0.5-0.4,0.7-0.5c0.1,0,0.7-0.4,0.3-0.3
		c0.3-0.1,1.1-0.4,0.9-0.9c-0.1-0.4-0.9-0.4-1.2-0.3c-0.4,0.1-0.7,0.3-1.1,0.5c-0.2,0.2-1.1,0.6-1.2,0.9c0,0.1-0.7,0.2,0.3,0
		c0.5-0.1,0.3,0,0.2-0.3c-0.1-0.3-0.4-0.5-0.6-0.7c-0.4-0.4-0.8-0.7-1.3-0.9c-0.9-0.3-1.9,0.1-2.6,0.7c-0.2,0.2-0.4,0.4-0.5,0.5
		c0,0-0.2,0.2-0.2,0.2c0-0.3,0.8,0.2,0.6-0.2c-0.1-0.2-1.1-0.7-1.3-0.9c-0.9-0.5-1.9-0.6-2.8-0.1c-0.3,0.1-0.5,0.3-0.7,0.5
		c-0.1,0-0.3,0.2-0.3,0.2c-0.1,0.4,0.4-0.3,0.4-0.1c0-0.1-1.4-0.5-1.6-0.5c-0.9-0.2-1.8,0.1-2.5,0.7c-0.1,0.1-1,0.7-1,0.9
		c0,0,0.7,0,0.7-0.2c0,0-0.2-0.2-0.2-0.2c-0.1-0.2-0.4-0.3-0.5-0.4c-1.8-1-3.3,1.1-4.1,2.3C45,63.1,47.2,62.9,47.6,62.3"/>
	<path class="st4" d="M67.1,53.8c-0.6-0.4-1.4-0.9-2.2-1c-1-0.1-2.2,0.4-3,1c-0.4,0.2-0.3,0.2,0.3,0c-0.1-0.1-0.2-0.1-0.3-0.2
		c-0.1-0.2-0.5-0.4-0.7-0.5c-0.4-0.2-0.8-0.3-1.3-0.2c-0.5,0.1-1.1,0.3-1.5,0.6c-0.2,0.2-0.3,0.4-0.5,0.6c-0.1,0.1-0.5,0.6-0.3,0.5
		c0.4-0.1,0.7-0.2,1.1-0.3c0.3,0,0.1,0,0-0.1c-0.1-0.1-0.3-0.2-0.4-0.2c-0.3-0.2-0.6-0.4-0.9-0.6c-0.5-0.3-1-0.7-1.5-0.7
		c-0.7-0.1-1.5,0.2-2.1,0.7c-0.3,0.2-0.5,0.5-0.7,0.7c-0.2,0.2-0.7,0.6-0.8,0.9c-0.2,0.2-0.1,0.2,0.4-0.1c0.6,0,0.7-0.1,0.3-0.2
		c-0.1-0.1-0.3-0.2-0.4-0.3c-0.3-0.2-0.6-0.4-0.9-0.6c-0.6-0.4-1.1-0.6-1.7-0.5c-0.7,0.1-1.4,0.4-1.9,0.8c-0.2,0.2-0.4,0.4-0.5,0.7
		c-0.1,0.1-0.2,0.3-0.3,0.4c-0.3,0.5-0.5-0.1,0.5,0.1c-0.5-0.1-1.1,0-1.5,0.3c-0.2,0.1-0.8,0.5-0.3,0.6c1,0.2,2-0.1,2.8-0.6
		c0.3-0.2,0.5-0.5,0.8-0.8c0.1-0.2,0.3-0.3,0.4-0.5c0,0,0.2-0.1,0.2-0.2c0-0.1-1,0.1-0.9,0.2c0.2,0.3,0.9,0.6,1.2,0.8
		c0.4,0.3,0.7,0.5,1.2,0.7c0.9,0.3,2-0.1,2.7-0.7c0.4-0.3,0.7-0.7,1-1c0-0.1,0.5-0.4,0.4-0.5c0.1,0.3-1.2-0.3-1,0.2
		c0,0,0.2,0.1,0.3,0.1c0.8,0.4,1.4,1.1,2.3,1.4c0.8,0.3,2-0.1,2.6-0.7c0.1-0.1,0.2-0.3,0.3-0.4c0.3-0.4,0.6-0.6-0.2-0.3
		c-0.8,0.3-0.4,0.3,0,0.6c0.2,0.1,0.4,0.3,0.6,0.4c1,0.4,2.3-0.2,3.1-0.7c0.2-0.1,1.1-0.5,0.3-0.3c-0.6,0.2-0.1,0.2,0.2,0.3
		c0.3,0.2,0.7,0.4,1,0.6C65.5,54.9,67.4,54,67.1,53.8"/>
	<path class="st4" d="M19.8,36.8c0.1-0.6,0.3-1.2,0.4-1.9c0,0,0.1-0.1,0.1-0.2c-0.1-0.6-1,0.6-1.1,0.3c0,0.1,0.6,0.3,0.6,0.4
		c0.4,0.3,0.9,0.5,1.4,0.6c1,0.2,1.9-0.3,2.6-1c0.2-0.2,0.4-0.4,0.6-0.6c0,0,0.2-0.1,0.2-0.1c0.2-0.5-1,0.4-0.9,0.1
		c0,0.1,0.9,0.9,1,1.1c0.7,0.7,1.6,1,2.5,0.5c0.5-0.2,0.8-0.6,1.2-0.9c0.2-0.2,0.4-0.4,0.5-0.5c0-0.1,0.2-0.1,0.2-0.2
		c-0.8,0-1,0-0.7,0.2c0.1,0,0.1,0.1,0.1,0.1c0.4,0.7,1.3,1.6,2.1,1.7c0.6,0.1,1.2-0.1,1.7-0.3c0.2-0.1,0.4-0.2,0.6-0.4
		c0,0,0.3-0.3,0.3-0.3c-0.2,0-0.4,0-0.6,0c0,0,0.1,0.1,0.1,0.1c0.1,0.2,0.4,0.5,0.5,0.7c0.2,0.3,0.4,0.7,0.6,1
		c0.4,0.5,0.7,0.9,1.4,0.9c0.6,0,1.2-0.2,1.7-0.6c0.2-0.2,0.3-0.3,0.5-0.5c0.1-0.1,0.4-0.5,0.3-0.5c0.3-0.2,0.9-0.5,0.6-0.9
		c-0.3-0.4-1.1-0.2-1.4-0.1c-0.5,0.2-0.8,0.5-1.1,0.9c-0.1,0.1-0.4,0.4-0.4,0.5c0,0-0.1,0.1-0.1,0.1c0.4-0.1,0.7-0.2,1.1-0.2
		c0-0.1-0.4-0.5-0.4-0.5c-0.6-0.8-1-2.1-2.1-2.2c-0.6-0.1-1.3,0.1-1.8,0.4c-0.2,0.1-0.5,0.3-0.6,0.5c-0.1,0.2-0.6,0.2,0.1,0.1
		c0.6-0.1,0.2,0,0.1-0.2c-0.6-0.7-1.3-1.6-2.3-1.7c-1.2-0.1-2,0.8-2.8,1.6c-0.1,0.1-0.3,0.2-0.3,0.3c-0.1,0.4,0.8-0.2,0.8-0.1
		c0,0-0.5-0.5-0.5-0.5c-0.3-0.4-0.7-0.8-1.1-1.1c-1-0.5-2,0.1-2.7,0.7c-0.2,0.2-0.4,0.3-0.6,0.5c-0.2,0.2-0.7,0.5-0.1,0.3
		c0.6-0.2,0.1-0.2-0.2-0.4c-0.3-0.1-0.5-0.3-0.8-0.4c-1-0.5-2.3-0.4-2.9,0.7c-0.4,0.7-0.5,1.6-0.6,2.3C17.5,38,19.6,37.6,19.8,36.8"
		/>
	<path class="st4" d="M38.5,43.8c-0.9-1.3-2.1-3.3-4-2.6c-0.2,0.1-1.4,0.7-1.5,0.9c0-0.2,0.7,0.5,0.6,0c0,0-0.2-0.3-0.2-0.3
		c-0.1-0.2-0.3-0.5-0.4-0.7c-0.6-1-1.3-1.5-2.4-1c-0.4,0.2-0.8,0.5-1.1,0.8c-0.2,0.2-0.4,0.4-0.6,0.5c-0.1,0-0.3,0.2-0.3,0.2
		c-0.1,0.2,0.6,0.1,0.6-0.1c0-0.1-0.5-0.3-0.6-0.4c-0.3-0.2-0.5-0.4-0.8-0.6c-0.3-0.3-0.7-0.6-1.1-0.7c-1.1-0.3-1.7,0.5-2.4,1.2
		c-0.2,0.2-0.5,0.3-0.7,0.5C23.3,42.1,24,42,24,41.9c0,0-0.1-0.1-0.1-0.1c-0.2-0.4-0.7-0.9-1-1.3C22.1,39.6,21,39.2,20,40
		c-0.4,0.3-0.7,0.8-0.9,1.2c-0.1,0.2-0.2,0.4-0.3,0.6c0,0.1-0.1,0.2-0.2,0.3c-0.1,0.5-0.6-0.3,0.5,0c-0.5-0.1-1.2,0-1.5,0.4
		c-0.3,0.4-0.2,0.9,0.3,1c1,0.3,2.1-0.1,2.7-1c0.2-0.4,0.4-0.8,0.6-1.1c0-0.1,0.3-0.4,0.2-0.5c-0.1-0.1,1.5-0.3-0.4,0
		c-0.8,0.1-0.4,0-0.3,0.2c0.2,0.4,0.6,0.8,0.8,1.1c0.3,0.3,0.6,0.7,0.9,0.9c1.2,0.6,2.6-0.4,3.4-1.2c0.1-0.1,0.8-0.7,0.7-0.8
		c0,0-1.1,0.2-1.1,0.2c0,0,0.2,0.1,0.2,0.1c0.2,0.2,0.6,0.4,0.8,0.6c0.9,0.7,1.8,1.3,3,0.8c0.4-0.2,0.8-0.5,1.2-0.8
		c0.2-0.2,0.4-0.3,0.6-0.5c0.1,0,0.2-0.1,0.2-0.2c0.3-0.2,0.2-0.2-0.3-0.1c-0.5-0.1-0.6-0.1-0.4,0.1c0,0.2,0.6,0.9,0.7,1.1
		c0.2,0.4,0.5,0.7,0.9,0.9c0.6,0.2,1.3,0,1.9-0.3c0.3-0.1,0.7-0.4,0.8-0.6c0,0,0.1,0,0.1-0.1c0.3-0.2,0.1-0.2-0.5-0.1
		c0,0,0.2,0.1,0.2,0.1c0.2,0.4,0.8,0.9,1.1,1.3c0.2,0.3,0.4,0.5,0.6,0.8C37.1,45.5,39.1,44.7,38.5,43.8"/>
	<path class="st4" d="M27.4,47.5c0.3,4.1,0.6,8.3,1.4,12.4c0.2,0.7,0.3,1.8,0.9,2.4c0.6,0.6,2.7-0.2,2-0.9c-0.2-0.2-0.2-0.2-0.3-0.6
		c-0.1-0.4-0.2-0.8-0.3-1.3c-0.3-1.2-0.4-2.4-0.6-3.6c-0.3-2.4-0.5-4.9-0.7-7.4c0-0.6-0.1-1.1-0.1-1.7C29.5,46,27.3,46.5,27.4,47.5"
		/>
	<path class="st4" d="M23.1,58.4C23.3,58.2,22.9,58.5,23.1,58.4c0.1-0.1,0.2-0.2,0.3-0.3c0.3-0.2,0.6-0.4,0.9-0.7
		c0.8-0.6,1.7-1.2,2.5-1.8c1.9-1.3,3.9-2.7,5.8-3.6c0.4-0.2,0.8-0.4,1.2-0.6c0.2-0.1-0.2,0.1,0.1,0c0.1,0,0.2,0,0.2-0.1
		c0.2-0.1-0.3,0-0.1,0c0.1,0-0.2,0-0.3,0c0.5,0.1,1.2,0,1.5-0.4c0.3-0.3,0.3-0.8-0.3-0.9c-0.9-0.2-1.8,0.2-2.7,0.5
		c-1,0.5-2,1.1-3,1.7c-2.1,1.3-4.2,2.7-6.2,4.2c-0.7,0.5-1.3,1-1.9,1.5c-0.4,0.3-0.2,0.8,0.3,0.9C22,59,22.7,58.8,23.1,58.4"/>
	<path class="st4" d="M22.4,51.9c1.1,0.3,2.2,0.6,3.2,1.1c2,0.8,4,1.7,5.6,3.1c0.9,0.8,1.6,1.7,2,2.8c0.3,0.9,2.5,0.3,2.2-0.6
		c-0.8-2.2-2.7-3.7-4.7-4.9C29,52.4,27,51.6,25,50.9c-0.4-0.1-0.8-0.3-1.3-0.4c-0.5-0.1-1.2,0-1.5,0.4
		C21.9,51.3,21.9,51.8,22.4,51.9"/>
	<path class="st1" d="M54.8,39l0.7-6.9l5.5,2.2c0.2,0.1,0.3,0.4,0.1,0.6l-4.7,4.8C55.7,40.2,54.8,39.8,54.8,39"/>
	<path class="st4" d="M55.9,38.7l0.6-6c0-0.3,0.1-0.6,0.1-0.9c-0.7,0.2-1.4,0.4-2.1,0.6c1.8,0.7,3.6,1.4,5.3,2.1
		c0.1,0,0.2,0.1,0.3,0.2c0,0.1,0,0.2,0,0.2c0,0,0,0,0,0C60,35,60,35,60,35c-0.3,0.3-0.5,0.6-0.8,0.8c-0.9,0.9-1.8,1.8-2.6,2.7
		c-0.3,0.4-0.7,0.7-1.1,1.1c-0.1,0.1-0.1,0.1-0.2,0.2c0,0,0,0,0,0c0.4-0.1,0.8-0.2,1.2-0.3c0,0-0.1,0-0.1,0c-0.1,0-0.2-0.1-0.2-0.1
		C55.9,39.1,55.9,38.9,55.9,38.7c0-0.3-2.2,0-2.2,0.6c0.1,1.4,2.1,1,2.9,0.7c0.5-0.2,0.7-0.4,1-0.8c0.9-0.9,1.8-1.8,2.7-2.8
		c0.4-0.4,0.8-0.8,1.2-1.3c0.2-0.2,0.6-0.5,0.6-0.8c0-0.4-0.5-0.5-0.8-0.6c-0.6-0.2-1.1-0.5-1.7-0.7c-1.1-0.4-2.1-0.9-3.2-1.3
		c-0.4-0.1-0.9,0-1.2,0.1c-0.2,0.1-0.8,0.2-0.9,0.5l-0.6,6c0,0.3-0.1,0.6-0.1,0.9c0,0.3,1.1,0,1.2,0C55.1,39.2,55.8,39,55.9,38.7"/>
	<path class="st4" d="M63.2,14.2c0.1-0.5,0.3-1,0.4-1.5c0.2-0.6,0.4-1.2,0.1-1.7c-0.4-0.7-1.3-1-2.1-1c-1.1,0-2.4,0.4-2.9,1.4
		c-1,1.9-1.8,3.9-2.7,5.8c-0.1,0.2-0.1,0.2-0.2,0.3c-0.1,0.2-0.4,0.2-0.6,0.2h-0.8c-0.4,0-1,0.1-1.3,0.4c-0.3,0.2-0.2,0.7,0.2,0.7
		c1.5,0,3.4,0.2,4.4-1.2c0.4-0.6,0.7-1.5,1-2.2c0.5-1.1,1.1-2.3,1.6-3.4c0.1-0.3,0.7-0.7,1-0.6c0.9,0.2,0.9,0.8,0.7,1.5
		c-0.2,0.6-0.3,1.1-0.5,1.7C61.3,15,63.1,14.7,63.2,14.2"/>
	<path class="st1" d="M68.7,16.3l-6.6-2.5l1.9-5c0.5-1.4,2.1-2.1,3.6-1.6L69,7.7c1.4,0.5,2.2,2.1,1.6,3.5L68.7,16.3z"/>
	<path class="st4" d="M69.5,15.8c-2.2-0.8-4.4-1.6-6.6-2.5c0.1,0.1,0.1,0.2,0.2,0.4c0.4-1,0.8-2.1,1.2-3.1c0.4-1,0.7-2.4,1.5-2.9
		c0.1,0,0,0,0.1,0c0.1,0,0,0,0,0c0.1,0,0.1,0,0.2,0c0.1,0,0.3,0,0.5,0.1c0.2,0.1,0.5,0.2,0.7,0.3c0.7,0.3,1.5,0.5,1.9,1.2
		c0.8,1.2,0.1,2.5-0.3,3.6c-0.5,1.2-0.9,2.4-1.4,3.6c-0.2,0.5,0.7,0.5,0.9,0.4c0.4-0.1,1.1-0.3,1.2-0.7c0.4-1.2,0.9-2.3,1.3-3.5
		c0.2-0.5,0.4-1,0.6-1.5c0.3-0.9,0.2-1.9-0.3-2.7C70.8,7.6,70,7.3,69.2,7c-1-0.4-1.9-0.7-2.9-0.5c-1.3,0.2-2.7,1-3.3,2.2
		c-0.2,0.4-0.3,0.8-0.5,1.3L61,14c-0.1,0.2,0.1,0.3,0.2,0.4c2.2,0.8,4.4,1.6,6.6,2.5c0.5,0.2,1.1,0.1,1.5-0.2
		C69.6,16.5,70,16,69.5,15.8"/>
	<path class="st4" d="M61.1,34.8l-5.7-2.7l2.6-7.9l4.7-12.1c0,0,1.9,1.3,2.6,1.6c1,0.4,4,0.8,4,0.8l-5.6,14.4L61.1,34.8z"/>
	<path class="st4" d="M62,34.3c-1.9-0.9-3.8-1.8-5.7-2.7c0.1,0.1,0.1,0.2,0.2,0.3c1.8-5.5,3.8-10.9,5.9-16.3
		c0.5-1.2,0.9-2.5,1.4-3.7c-0.7,0.2-1.4,0.4-2.1,0.6c1,0.7,2,1.5,3.2,1.8c1.2,0.4,2.5,0.5,3.8,0.7c-0.1-0.1-0.3-0.3-0.4-0.4
		c-2,5.1-3.8,10.3-6,15.3c-0.7,1.7-1.5,3.3-2.2,5c-0.3,0.6,1.9,0.4,2.2-0.3c2.5-5.6,4.7-11.2,6.9-17c0.4-1.1,0.9-2.2,1.3-3.4
		c0.1-0.2-0.2-0.4-0.4-0.4c-1.1-0.2-2.3-0.3-3.4-0.6c-1.1-0.3-2-1-2.9-1.7c-0.5-0.4-1.8-0.1-2.1,0.6c-2,5.1-4,10.2-5.7,15.3
		c-0.5,1.6-1,3.1-1.6,4.7c-0.1,0.2,0.1,0.3,0.2,0.3c1.9,0.9,3.8,1.8,5.7,2.7C60.8,35.5,62.8,34.7,62,34.3"/>
	<rect x="0" y="0" class="st5" width="86" height="86"/>
</g>
</svg>
