<?xml version="1.0" encoding="utf-8"?>
<!-- Generator: Adobe Illustrator 22.1.0, SVG Export Plug-In . SVG Version: 6.00 Build 0)  -->
<svg version="1.1" id="Layer_1" xmlns="http://www.w3.org/2000/svg" xmlns:xlink="http://www.w3.org/1999/xlink" x="0px" y="0px"
	 viewBox="0 0 491 618" style="enable-background:new 0 0 491 618;" xml:space="preserve">
<style type="text/css">
	
		.st0{fill:none;stroke:#E8C3BC;stroke-width:2;stroke-linecap:round;stroke-linejoin:round;stroke-miterlimit:10;stroke-dasharray:6,8;}
	.st1{clip-path:url(#SVGID_2_);fill:#FFFFFF;}
	.st2{clip-path:url(#SVGID_2_);fill:#F05925;}
	.st3{clip-path:url(#SVGID_2_);fill:#E8C3BC;}
	.st4{clip-path:url(#SVGID_2_);fill:#F05925;}
</style>
<g>
	<path class="st0" d="M74.8,65.6c98.9-5.4,182-13.6,315-13.6c72.7,0,85.3,32.5,80.6,53.3C443.4,225,490.9,389.8,482,524.2
		c-2.8,43.1-15.3,75.6-60.4,73c-141.4-7.9-280,13.3-352.9,14.8c-31.4,0.6-51.7-27.2-43.3-112.6c13.8-140.3-8.2-210.5,6.4-386.8
		C33.9,86.5,49.8,67,74.8,65.6z"/>
	<g>
		<defs>
			<rect id="SVGID_1_" width="128" height="126"/>
		</defs>
		<clipPath id="SVGID_2_">
			<use xlink:href="#SVGID_1_"  style="overflow:visible;"/>
		</clipPath>
		<path class="st1" d="M18.5,118c-5.9,0-9.9-4-10-9.9C8.3,89.6,8.2,71.1,8,52.6C7.9,47,11.6,43,17.1,42.5c0-1.2,0-2.3,0-3.4
			c-0.1-2.4,1.2-4.2,3.5-5.1c6.8-2.4,13.6-3.6,20.1-3.6c1,0,2,0,3,0.1c8,0.4,14.7,2.6,20.5,6.6c4.3-3,9.1-5.1,14.4-6.2
			c-0.5-0.8-0.7-1.7-0.6-2.7c0.2-2.5,2.2-4.2,4.8-4.2c0,0,0.2,0,0.3,0c0-0.1,0.1-0.2,0.1-0.3c0.3-0.8,0.6-1.6,0.9-2.5
			c0.4-1.1,0.8-2.1,1.2-3.2c1.4-3.7,4.2-5.8,7.9-5.8c1.5-3.2,4.5-5.2,8-5.2c1,0,2,0.2,2.9,0.5c1,0.3,2,0.7,3,1.2
			c3.8,2.1,5.4,6.7,3.8,10.9c-1.5,3.9-3,7.8-4.4,11.7l-0.6,1.5c0.5,0.2,1,0.3,1.6,0.5c2.3,0.7,3.7,2.5,3.7,5c0,1.2,0,2.3,0,3.4
			c5.5,0.4,9.2,4.3,9.3,9.9c0.2,18.5,0.3,37,0.5,55.5c0.1,6-3.9,10-9.9,10.1L18.5,118z"/>
		<path class="st1" d="M101.2,10c0.7,0,1.3,0.1,2,0.3c0.8,0.3,1.7,0.6,2.5,1c2.5,1.4,3.5,4.4,2.5,7.2c-1.8,4.9-3.7,9.9-5.6,14.8
			c-0.2,0.5-0.3,0.9-0.5,1.4c1.6,0.5,3.1,1,4.6,1.4c1.1,0.3,1.6,1,1.6,2.1c0,2.1,0,4.2,0,6.4c0.7,0,1.4,0,2,0c0,0,0.1,0,0.1,0
			c4.3,0,7,2.7,7.1,6.9c0.2,18.5,0.3,37,0.5,55.5c0,4.3-2.6,7-6.9,7c-30.8,0.3-61.7,0.5-92.5,0.8c0,0-0.1,0-0.1,0
			c-4.3,0-7-2.6-7-6.9c-0.2-18.5-0.3-37-0.5-55.5c0-4.3,2.6-7,6.9-7.1c0.7,0,1.3,0,2.2,0c0-2.3,0-4.3-0.1-6.4c0-1.1,0.4-1.8,1.5-2.1
			c6.2-2.2,12.6-3.4,19.1-3.4c0.9,0,1.9,0,2.8,0.1c7.3,0.4,14.2,2.4,20.1,6.9c0.1,0.1,0.4,0.2,0.6,0.2c0.2,0,0.3,0,0.4-0.1
			c6.8-5.3,14.7-7.4,23.2-7.4c0.2,0,0.4,0,0.7-0.1c1.8-4.8,3.7-9.6,5.5-14.5c-0.2,0-0.5-0.1-0.7-0.1c-1,0-1.7,0.5-2.1,1.6
			c-0.8,2.1-1.6,4.2-2.4,6.4c-0.9,2.4-3.2,3.9-5.4,3.9c-0.3,0-0.7,0-1-0.1c-1-0.2-1.6-0.9-1.5-1.7c0.1-0.9,0.8-1.5,1.9-1.5
			c0,0,0,0,0,0h0c1.9,0,2.5-0.4,3.1-2.2c0.7-1.9,1.4-3.8,2.2-5.7c1-2.6,2.8-3.9,5.4-3.9c0.5,0,1.1,0.1,1.7,0.2
			c0.2-0.6,0.5-1.1,0.7-1.7C96.8,11.4,98.9,10,101.2,10 M101.2,4c-4.1,0-7.7,2-9.9,5.4c-4,0.7-7.2,3.4-8.8,7.6
			c-0.4,1.1-0.8,2.2-1.2,3.3c-0.1,0.3-0.2,0.7-0.4,1c-3.3,0.7-5.7,3.3-6,6.7l0,0l0,0c0,0.3,0,0.5,0,0.8c-3.9,1.1-7.5,2.7-10.8,4.8
			c-5.8-3.6-12.6-5.6-20.3-6c-1-0.1-2.1-0.1-3.1-0.1c-6.9,0-14,1.3-21.1,3.8c-3.6,1.3-5.6,4.3-5.5,8c0,0.3,0,0.5,0,0.8
			c-5.5,1.6-9.1,6.3-9,12.6c0.2,18.5,0.3,37,0.5,55.5c0.1,7.6,5.4,12.9,13,12.9l0.1,0l48.3-0.4l44.2-0.4c7.7-0.1,13-5.5,12.9-13.1
			c-0.2-18.5-0.3-37-0.5-55.5c-0.1-6.2-3.7-10.9-9.3-12.4c0-0.3,0-0.6,0-0.9v0v0c0-3.2-1.6-5.9-4.4-7.3c1.3-3.4,2.6-6.9,3.9-10.3
			c2.1-5.6-0.1-11.7-5.1-14.5c-1.2-0.7-2.4-1.1-3.5-1.5C103.8,4.2,102.5,4,101.2,4"/>
		<path class="st2" d="M29.9,56.4c5.6-1.3,11.3-1.7,17-0.5c2.6,0.5,5,1.5,7.3,2.8c1.3,0.8,2.8,0,2.6-1.3c-0.1-0.6-0.6-1.3-1.2-1.6
			c-5-3-10.5-3.9-16.3-4c0-0.1,0-0.2-0.1-0.3c-3.5,0.6-7,1.1-10.5,1.7c-1.1,0.2-1.6,1-1.4,2C27.5,56.4,28.4,56.7,29.9,56.4"/>
		<path class="st3" d="M109.4,45.7c-0.7,0-1.4,0-2.2,0l-88.2,0.8c-0.8,0-1.5,0-2.2,0c-4.3,0.1-7,2.8-6.9,7.1
			c0.2,18.5,0.3,37,0.5,55.5c0,4.3,2.8,6.9,7.1,6.9c30.8-0.3,61.7-0.5,92.5-0.8c4.3,0,7-2.7,6.9-7c-0.2-18.5-0.3-37-0.5-55.5
			C116.5,48.3,113.7,45.7,109.4,45.7 M90.6,53.2c-1.4,2.8-3.5,4.9-6,6.9c-0.5-3.1-0.7-6,0.1-9.1C86.7,51.8,88.6,52.5,90.6,53.2
			 M22.8,100.7c0-0.5,0-0.9,0-1.2c-0.2-17.5-0.3-35.1-0.5-52.6l39.2,4c0.1,17.4,0.3,34.7,0.4,52.1c0,0.4,0,0.8,0,1.4
			C49.4,98,36.3,97.4,22.8,100.7 M65.4,104.2c0-0.4-0.1-0.8-0.1-1.1c-0.2-17.4-0.3-34.9-0.5-52.3l17.1-2.1c-0.7,2.5-1.2,5-1,7.6
			c0.1,1.7,0.3,3.4,0.5,5c-2.2,0.7-4.5,1.2-6.7,2c-1.4,0.5-2.7,1.3-4,2c-1,0.6-1.2,1.5-0.7,2.3c0.5,0.8,1.4,1.1,2.4,0.4
			c2.7-1.7,5.6-2.7,8.8-3.3c0.4-0.1,0.8-0.2,1.2-0.1c1.6,0.3,2.6-0.7,3.7-1.5c3.6-2.8,6.6-6,8.4-10.3c0.8-2,1.6-4,2.3-6l7.2-0.9
			c0.2,17.5,0.3,35,0.5,52.5c0,0.4,0,0.8,0,1.4C90.9,97,77.9,97.8,65.4,104.2"/>
		<path class="st2" d="M51.3,87c-2-1.4-4.1-2.8-6.2-4.3c0.4-0.3,0.7-0.5,1-0.7c1.8-1.3,3.5-2.5,5.3-3.8c0.8-0.6,1-1.6,0.4-2.3
			c-0.5-0.7-1.4-0.8-2.3-0.3c-0.3,0.2-0.6,0.5-1,0.7c-1.5,1.1-3,2.1-4.6,3.3c0-0.6,0-0.9,0-1.3c0-1.6,0-3.1,0-4.7c0-0.3,0-0.6-0.1-1
			c-0.1-0.9-0.9-1.5-1.7-1.4c-0.9,0.1-1.5,0.8-1.5,1.8c0,2.1,0,4.2,0.1,6.5c-1.9-1.3-3.7-2.5-5.4-3.7c-1-0.7-1.9-0.6-2.5,0.2
			c-0.6,0.8-0.3,1.8,0.7,2.5c1.5,1.1,3.1,2.2,4.6,3.2c0.5,0.3,0.9,0.7,1.5,1.1c-0.3,0.2-0.5,0.4-0.6,0.5c-1.8,1.3-3.7,2.6-5.5,3.9
			c-0.9,0.7-1.1,1.6-0.6,2.4c0.6,0.8,1.6,0.9,2.5,0.2c0.8-0.5,1.5-1.1,2.3-1.6c1-0.7,2-1.4,3-2.2c0.1,0.2,0.1,0.2,0.1,0.2
			c0,2,0.1,4,0.1,6c0,1.2,0.6,2,1.6,2c1.1,0,1.7-0.7,1.7-2c0-1.3,0-2.7,0-4c0-0.7,0-1.4,0-2.3c2,1.4,3.7,2.6,5.5,3.8
			c0.8,0.5,1.5,0.7,2.2,0C52.5,88.9,52.4,87.7,51.3,87"/>
		<path class="st2" d="M55.8,65.4c-5.1-3-10.6-4-17.8-3.9c-2.2,0-5.8,0.5-9.3,1.4c-1.1,0.3-1.5,0.9-1.4,1.8c0.1,1.1,1.1,1.6,2.4,1.3
			c5.8-1.3,11.6-1.9,17.4-0.4c2.4,0.6,4.8,1.8,7.1,2.8c1.2,0.5,2.4,0.1,2.6-1C57.1,66.4,56.5,65.9,55.8,65.4"/>
		<path class="st2" d="M72.9,86.5c5.1-1.5,10.3-2.3,15.7-2.4c3,0,6,0.1,9,0.2c1.2,0.2,1.9-0.4,2-1.3c0.1-1-0.5-1.6-1.7-1.7
			C89,80.3,80.4,80.9,72,83.4c-1.6,0.5-2.2,1.2-1.9,2.3C70.4,86.7,71.3,87,72.9,86.5"/>
		<path class="st2" d="M72.2,77.2c0.2,0,0.4-0.1,0.6-0.2c4.2-1.2,8.6-2.1,13-2.2c3.9-0.1,7.8,0.1,11.6,0.2c1.2,0,1.9-0.5,2-1.4
			c0.1-1-0.6-1.7-1.7-1.8c-2.7-0.2-5.3-0.3-8.7-0.5c-3.1,0.3-6.8,0.6-10.5,1.2c-2.4,0.4-4.8,1.1-7.2,1.7c-1.1,0.3-1.6,1.1-1.4,2
			C70.2,77,71.1,77.4,72.2,77.2"/>
		<path class="st2" d="M97.5,90.7c-2.5-0.2-5.1-0.3-8.5-0.5c-3.2,0.4-7.2,0.8-11.2,1.4c-2.2,0.3-4.4,1.1-6.6,1.7
			c-0.9,0.3-1.3,1-1.1,1.9c0.2,0.9,0.9,1.3,1.7,1.2c0.4,0,0.8-0.2,1.1-0.3c4.6-1.3,9.2-2.2,14-2.3c3.6-0.1,7.1,0.2,10.7,0.2
			c0.6,0,1.3-0.4,1.7-0.8c0.3-0.3,0.3-1.2,0-1.5C98.9,91.1,98.2,90.8,97.5,90.7"/>
		<path class="st4" d="M16.8,44.9c0-0.8,0.4-1.5,1.2-1.8c3.2-1.1,12.2-3.8,20.2-3c11.2,1.1,19,4.9,21.4,6.3c0.5,0.3,1.2,0.3,1.7,0
			c2.6-1.5,10.5-5.6,18.7-6.3c8.7-0.7,17.9,1.8,21.5,2.9c0.9,0.3,1.5,1.1,1.6,2.1c0.2,8.5,0.9,48.8,1.1,58.9c0,1.1-1,2-2.2,1.8
			c-4.2-0.9-13.9-2.6-23.2-1.2c-4.4,0.7-14.3,4.6-16.7,5.5c-0.4,0.1-0.8,0.2-1.1,0.1c-2.9-0.8-15.8-4.5-20.6-5.1
			c-6.5-0.9-14.7,0.9-18.5,1.9c-1.1,0.3-2.2-0.5-2.2-1.6L16.8,44.9z"/>
		<path class="st1" d="M20.2,39.4c0-0.8,0.4-1.5,1.2-1.8c3.2-1.1,12.2-3.8,20.2-3c11.2,1.1,19,4.9,21.4,6.3c0.5,0.3,1.2,0.3,1.7,0
			c2.6-1.5,10.5-5.6,18.7-6.3c8.7-0.7,17.9,1.8,21.5,2.9c0.9,0.3,1.5,1.1,1.6,2.1c0.2,8.5,0.9,48.8,1.1,58.9c0,1.1-1,2-2.2,1.8
			c-4.2-0.9-13.9-2.6-23.2-1.2c-4.4,0.7-14.3,4.6-16.7,5.5c-0.4,0.1-0.8,0.2-1.1,0.1c-2.9-0.8-15.8-4.5-20.6-5.1
			c-6.5-0.9-14.7,0.9-18.5,1.9c-1.1,0.3-2.2-0.5-2.2-1.6L20.2,39.4z"/>
		<path class="st4" d="M21.7,39.2c0.1-1.4,1.2-1.3,2.4-1.7c1.4-0.4,2.9-0.8,4.4-1.1c3.7-0.8,7.5-1.3,11.3-1.1
			c6.6,0.4,13.3,2.2,19.3,4.9c2,0.9,3.8,2.3,6.1,1.3c1-0.4,2-1.1,3-1.5c1.3-0.7,2.7-1.3,4.1-1.8c3.7-1.5,7.6-2.6,11.6-2.8
			c4-0.2,7.9,0.2,11.8,0.9c1.7,0.3,3.3,0.7,4.9,1.1c1.1,0.3,2.5,0.5,3.5,1.1c1.4,0.8,1,3.4,1,4.8c0.1,4.2,0.2,8.5,0.2,12.7
			c0.2,10.7,0.4,21.4,0.6,32.2c0.1,3.6,0.1,7.3,0.2,10.9c0,0.2-0.1,0.3-0.1,0.4c0,0.2,0.7,0.1,0.1,0.1c-0.2,0-0.5-0.1-0.7-0.2
			c-0.7-0.1-1.3-0.3-2-0.4c-1.6-0.3-3.3-0.5-5-0.7c-4-0.4-8-0.6-12.1-0.3c-6.1,0.4-11.8,2.5-17.5,4.7c-1.1,0.4-2.1,0.8-3.1,1.2
			c-0.2,0.1-0.3,0.1-0.5,0.2c-0.4,0.2,0.2,0.1,0,0c-0.3-0.1-0.7-0.2-1.1-0.3c-2.3-0.7-4.7-1.3-7-1.9c-5.3-1.4-10.7-3.1-16.2-3.2
			c-3.6,0-7.3,0.4-10.8,1.1c-1.5,0.3-2.9,0.6-4.4,0.9c-0.8,0.2-1.2-0.5-1.3-1.2c-0.2-1.5-0.1-3.1-0.2-4.6c-0.2-3.4-0.3-6.7-0.5-10.1
			C23.4,75.9,23,67,22.6,58.2C22.3,52.1,22,46,21.7,39.9c0-0.3,0-0.6,0-0.9c0-0.8-2.9-0.3-2.9,0.8c0.2,4.7,0.4,9.5,0.7,14.2
			c0.4,9.2,0.8,18.3,1.3,27.5c0.3,6.1,0.6,12.1,0.8,18.2c0,1,0.3,1.9,1.3,2.4c1.3,0.6,2.8,0.1,4.1-0.2c1.6-0.4,3.2-0.7,4.8-1
			c3.7-0.6,7.6-1,11.3-0.4c2.5,0.4,5,1,7.4,1.6c2.9,0.7,5.7,1.5,8.5,2.3c2,0.6,4.6,1.8,6.7,1.1c2.2-0.7,4.4-1.7,6.6-2.5
			c2.8-1,5.6-2,8.5-2.7c3.8-0.9,7.9-0.9,11.8-0.7c3.5,0.2,7,0.6,10.5,1.3c1.5,0.3,2.9,0.6,4.3-0.2c1.2-0.6,1.7-1.6,1.6-2.9
			c0-1.7-0.1-3.3-0.1-5c-0.2-10.7-0.4-21.5-0.6-32.2c-0.1-4.9-0.2-9.9-0.3-14.8c0-1.7-0.1-3.3-0.1-5c0-0.8,0.1-1.7-0.4-2.4
			c-0.7-1.2-2.1-1.4-3.3-1.7c-7.3-2.1-15.1-3.3-22.6-2.3c-3.9,0.6-7.7,1.7-11.3,3.2c-1.5,0.6-2.9,1.3-4.3,2
			c-0.5,0.2-0.9,0.5-1.4,0.7c-0.1,0.1-0.5,0.3-0.6,0.3c-0.3,0,0.2-0.1,0-0.2c-0.1,0-0.2-0.1-0.2-0.1c-0.6-0.5-1.6-0.8-2.3-1.2
			c-1.1-0.5-2.2-1-3.4-1.4c-3.2-1.2-6.6-2.2-10-2.8c-4-0.8-8.1-1.2-12.2-0.9c-3.7,0.3-7.3,1-10.9,1.9c-2,0.6-6.3,1.1-6.4,3.8
			C18.7,40.6,21.6,40,21.7,39.2"/>
		<path class="st4" d="M62.8,41.7c0.5,3.4,0.8,6.9,1.1,10.4c0.7,9.6,1,19.2,0.9,28.8c-0.1,7.7-0.4,15.4-0.9,23.1
			c-0.1,1.1,2.1,0.7,2.2-0.2c1.3-19.7,1.6-39.7-0.6-59.3c-0.1-1.1-0.3-2.3-0.4-3.4C64.9,40.2,62.7,40.7,62.8,41.7"/>
		<path class="st4" d="M71.9,75.1c-0.2,0.2,0.2-0.2,0.2-0.2c0.2-0.2,0.4-0.4,0.7-0.6c0.2-0.2,0.5-0.3,0.7-0.5c0.3-0.3,0.3,0.1-0.1,0
			c0.2,0.1,0.4,0.1,0.6,0.2c1.2,0.4,2.4,1,3.8,0.7c0.5-0.1,1-0.4,1.4-0.8c0.2-0.2,1.1-1.5,1-1.5l-0.5,0.1c-0.6,0-0.7,0.1-0.3,0.3
			c0.1,0.1,0.2,0.2,0.3,0.3c0.3,0.2,0.5,0.5,0.7,0.7c0.4,0.4,0.8,0.7,1.3,0.8c1.1,0.2,2.2-0.4,2.8-1.3c0.2-0.4,0.9-1.2,0.9-1.7
			c0-0.2,0.6-0.3-0.3-0.1c-0.8,0.2-0.3,0.1-0.1,0.2c0.3,0.2,0.7,0.3,1,0.5c1.1,0.6,2.1,1.4,3.4,1.3c1.3-0.1,2.4-0.9,3.4-1.6
			c0.3-0.2,0.6-0.6,1-0.7c-0.2,0.1-0.4-0.2,0,0.1c0.1,0.1,0.3,0.1,0.5,0.2c0.7,0.3,1.4,0.8,2.1,1.2c1.4,0.8,2.8,1,4.3,0.4
			c0.3-0.1,0.9-0.4,0.6-0.8c-0.2-0.3-1.2,0-1.4,0c-0.4,0.1-1.5-0.5-1.9-0.8c-0.6-0.3-1.2-0.8-1.8-1.1c-1.1-0.6-2.3-0.5-3.4,0
			c-0.6,0.3-1.1,0.7-1.6,1.1c-0.6,0.4-0.8,0.8-1.5,0.6c-1.2-0.5-2.3-1.5-3.6-1.6C85,70.5,83.9,71,83.3,72c-0.1,0.2-1,1.6-1,1.7
			c0-0.1,0.8-0.1,0.7-0.4c0-0.1-0.3-0.3-0.4-0.3c-0.3-0.2-0.6-0.5-0.8-0.8c-0.9-0.8-2.1-1-3.1-0.2c-0.4,0.3-0.7,0.7-1,1.2
			c-0.1,0.1-0.5,0.7-0.5,0.8c0.2-0.1,0.5-0.2,0.7-0.2c-0.1,0-0.2,0-0.3-0.1c-0.2-0.1-0.4-0.1-0.6-0.2c-1.5-0.5-2.7-1.1-4.2-0.4
			c-1.1,0.5-2,1.3-2.9,2.1c-0.4,0.4,0.3,0.5,0.6,0.5C71,75.7,71.6,75.4,71.9,75.1"/>
		<path class="st4" d="M28.8,45.7c0.2-0.3,0.5-0.5,0.7-0.7c0.2-0.2,0.4-0.4,0.7-0.6c0.1-0.1,0.2-0.2,0.3-0.2c0.5-0.3-0.2-0.1,0.2,0
			c1.4,0.2,2.7,0.9,4.2,0.7c0.6-0.1,1.1-0.4,1.5-0.8c0.2-0.2,0.4-0.4,0.5-0.6c0,0,0.4-0.4,0.4-0.4C37,43,36.8,43,36.6,43
			c0.1,0.1,0.1,0.1,0.2,0.2c0.2,0.5,0.9,1.1,1.2,1.5c0.4,0.4,0.8,0.7,1.4,0.8c1.3,0.1,2.1-0.9,2.9-1.9c0.2-0.2,0.7-0.7,0.3-0.6
			c-0.4,0.1,0.3,0.3,0.5,0.5c0.6,0.4,1.2,1,1.9,1.5c1.1,0.8,2.2,0.9,3.5,0.4c0.7-0.3,1.3-0.6,1.9-0.9c0.6-0.3,0.6-0.5,1-0.1
			c1.5,1.6,2.3,5.2,5.1,4.7c0.4-0.1,1.2-0.3,1.2-0.8c0-0.5-0.6-0.7-1-0.6c-0.8,0.1-1.7-1.7-2.1-2.3c-0.5-0.9-1-2-2-2.5
			c-1.2-0.6-2.6,0.1-3.7,0.7c-0.4,0.2-1.1,0.8-1.6,0.7c-0.7-0.1-1.4-1-1.9-1.4c-1-0.8-2.2-1.5-3.6-0.9c-0.6,0.3-1,0.7-1.4,1.2
			c-0.2,0.2-0.5,0.5-0.6,0.8c0,0-0.3,0.3-0.3,0.3c0.5,0,0.6,0,0.4-0.2c-0.1-0.1-0.1-0.1-0.2-0.2c-0.5-1-1.6-2.2-2.8-2.1
			c-0.6,0.1-1.2,0.4-1.6,0.8c-0.2,0.2-0.5,0.5-0.6,0.7c0,0.1-0.4,0.5-0.1,0.3c0.2-0.1-0.2,0-0.4-0.1c-1.5-0.2-3-1.1-4.5-0.5
			c-1.1,0.5-2,1.4-2.8,2.3C26.2,46.2,28.2,46.3,28.8,45.7"/>
		<path class="st4" d="M71.9,94.8c0.5-0.7,1-1.5,1.6-2.1c0.1-0.1,0.8-0.7,0.1-0.3c-0.5,0.3-0.3,0,0,0.3c0.1,0.1,0.2,0.2,0.3,0.3
			c0.5,0.4,0.8,0.8,1.5,0.8c1.2,0.2,2.1-0.6,2.9-1.3c0.2-0.2,0.4-0.4,0.6-0.6c0.2-0.2,0.8-0.6,0.3-0.5c-0.5,0.1-0.1,0,0.1,0.1
			c0.2,0.1,0.6,0.2,0.8,0.3c0.3,0.1,0.7,0.3,1.1,0.4c1.4,0.4,2.6,0.1,3.7-0.9c0.2-0.1,0.5-0.5,0.6-0.5c0.3,0,0.8,0.4,1,0.5
			c0.6,0.4,1.2,0.9,1.9,1.2c1.1,0.5,2.3,0.3,3.3-0.5c0.4-0.3,0.9-0.8,1.2-1.2c0.2-0.4,0.2,0.2-0.1-0.1c0.1,0.1,0.3,0.2,0.5,0.3
			c0.4,0.3,0.8,0.7,1.2,1c0.4,0.5,0.7,1.2,1.4,1.5c0.6,0.2,1.3,0.1,1.8-0.1c0.6-0.2,1.1-0.5,1.6-0.9c0.4-0.3,1.1-1,1.5-1.1
			c1.3-0.4,1-1.6-0.3-1.1c-1.1,0.4-2.2,1.2-3.1,2c0,0-0.3,0.1-0.3,0.2c0,0.2,0.3,0.1,0.4-0.1c0-0.2-0.7-0.9-0.7-1
			c-0.5-0.6-1.2-1.2-1.9-1.6c-1.1-0.6-2.4-0.3-3.3,0.5c-0.5,0.4-0.8,0.9-1.3,1.3c0.4-0.3,0.3,0.1,0-0.2c-0.1-0.1-0.4-0.2-0.5-0.3
			c-0.4-0.2-0.7-0.5-1.1-0.8c-1.2-0.8-2.4-1.2-3.8-0.5c-0.5,0.2-1.1,1.1-1.5,1.2c-0.6,0.2-1.7-0.5-2.3-0.7c-1.3-0.4-2.3,0.1-3.3,1
			c-0.3,0.3-1.2,0.8-1.4,1.3c0,0,0,0-0.1,0c-0.2,0.2-0.1,0.1,0.5-0.1c0,0-0.3-0.2-0.3-0.3c-0.2-0.3-0.5-0.5-0.8-0.7
			C73,90,70.9,93,69.9,94.7C69.3,95.6,71.5,95.4,71.9,94.8"/>
		<path class="st4" d="M101.5,82c-0.9-0.6-1.9-1.3-2.9-1.5c-1.3-0.3-2.6,0.5-3.7,1.1c-0.2,0.1-0.5,0.2-0.6,0.4
			c-0.2,0.1-0.4,0-0.1,0.1c0.4,0.1-0.4-0.4-0.5-0.4c-0.5-0.4-1.1-0.9-1.7-1c-1.2-0.3-2.4,0.4-3,1.3c-0.2,0.2-0.4,0.5-0.5,0.7
			c-0.1,0.1-0.1,0.2-0.2,0.2c0.4-0.1,0.7-0.1,1.1-0.2c0,0-0.3-0.1-0.4-0.2c-0.5-0.4-1.3-0.8-1.8-1.2c-1-0.7-1.9-1.3-3.2-1.1
			c-1.4,0.3-2.2,1.2-3.1,2.2c-0.2,0.2-0.5,0.5-0.7,0.7c0,0-0.3,0.2-0.3,0.3c-0.2-0.9,1,0.4,0.3-0.2c-0.6-0.4-1.3-0.8-1.9-1.2
			c-1.2-0.8-2.3-1.2-3.7-0.6c-0.6,0.3-1.1,0.7-1.6,1.2c-0.2,0.3-0.4,0.5-0.6,0.8c-0.1,0.1-0.2,0.3-0.3,0.4c-0.1,0.2-0.4,0.3-0.2,0.3
			c-0.5-0.1-1.1,0-1.5,0.3c-0.2,0.1-0.8,0.5-0.3,0.6c1.2,0.2,2.6-0.1,3.5-0.9c0.4-0.4,0.8-0.9,1.1-1.3c0.2-0.2,0.4-0.5,0.6-0.7
			c0,0,0.3-0.2,0.3-0.2c-0.8,0.1-1.1,0.1-0.7,0.2c0.1,0,0.2,0.1,0.2,0.1c1,0.7,2.3,1.8,3.5,2.1c1.1,0.3,2.3-0.2,3.1-0.9
			c0.5-0.5,0.9-1,1.4-1.5c0.2-0.2,0.5-0.4,0.7-0.7c0.5-0.8-0.5,0.4-0.5,0c0,0,0.5,0.2,0.5,0.3c1.1,0.6,2.2,1.7,3.4,2.1
			c1,0.3,2.3-0.1,3-0.9c0.2-0.2,0.3-0.4,0.4-0.6c0.2-0.3,1-1,0.1-0.6c-0.7,0.3-0.2,0.3,0.3,0.6c0.3,0.2,0.6,0.5,0.9,0.7
			c1.3,0.7,2.9-0.1,4.1-0.7c0.1-0.1,0.3-0.2,0.4-0.2c0.1,0,0.8-0.4,0.5-0.3c-0.3,0,0.2,0.1,0.3,0.1c0.2,0.1,0.5,0.2,0.7,0.3
			c0.5,0.3,1,0.6,1.5,0.9C100,83.1,101.9,82.3,101.5,82"/>
		<path class="st4" d="M29.5,56.1c0.1-1,0.3-2.1,0.7-3c0-0.1,0.2-0.3,0.2-0.4c0-0.4-1.3-0.1-0.9,0.3c0.2,0.2,0.7,0.3,1,0.5
			c0.7,0.4,1.3,0.9,2.1,1c1.4,0.3,2.5-0.5,3.4-1.4c0.3-0.3,0.6-0.5,0.9-0.8c0.1-0.1,0.3-0.2,0.4-0.3c0.1-0.3-0.7-0.1-0.6,0.2
			c0,0.1,0.5,0.4,0.6,0.6c0.3,0.3,0.6,0.7,0.9,1c0.9,1,1.9,1.4,3.2,0.7c0.6-0.3,1-0.8,1.5-1.2c0.3-0.3,0.5-0.6,0.8-0.8
			c0.1-0.1,0.3-0.2,0.4-0.3c-0.5,0-0.6,0.1-0.3,0.2c0.1,0.1,0.2,0.2,0.3,0.2c1,0.8,1.6,2.3,3,2.5c0.7,0.1,1.5-0.1,2.1-0.5
			c0.3-0.2,0.6-0.4,0.9-0.6c0,0,0.3-0.3,0.4-0.4c-0.4,0.1,0,0.1,0.1,0.4c0.7,1.2,1.8,3.7,3.4,3.8c0.7,0,1.4-0.2,1.9-0.7
			c0.4-0.4,0.8-1.4,1.3-1.6c1.4-0.6,0.1-1.3-0.9-0.9c-0.6,0.3-1,0.6-1.4,1.1c-0.2,0.2-0.4,0.5-0.6,0.8c0,0.1-0.6,0.7,0.2,0.1
			c0.4-0.1,0.5-0.2,0.1-0.4c-0.1-0.1-0.2-0.2-0.2-0.3c-0.8-1-1.5-3.2-2.9-3.5c-0.7-0.1-1.6,0.1-2.2,0.5c-0.3,0.2-0.6,0.4-0.9,0.6
			c-0.4,0.4-0.2,0.4-0.6,0.1c-1.1-0.9-1.7-2.5-3.3-2.6c-1.6-0.1-2.6,1.2-3.6,2.2c-0.1,0.1-0.5,0.4-0.5,0.5c0,0.3,0.4,0.2,0.4-0.1
			c0-0.1-0.6-0.6-0.7-0.7c-0.5-0.5-0.9-1.1-1.5-1.5C37.3,50.4,36,51.2,35,52c-0.3,0.3-1.5,1.1-1.6,1.5c-0.1,0.2,0.4,0,0.3-0.1
			c-0.1-0.1-0.4-0.2-0.5-0.2c-0.4-0.2-0.8-0.5-1.3-0.8c-1.2-0.7-2.8-0.8-3.6,0.6c-0.6,1-0.7,2.4-0.9,3.5
			C27.2,57.2,29.4,56.8,29.5,56.1"/>
		<path class="st4" d="M58.1,66.9c-1.2-1.7-3-4.9-5.4-3.9c-0.6,0.3-1.5,0.8-2,1.3c-0.2,0.2,0.3,0.3,0.2,0c0-0.1-0.2-0.3-0.3-0.4
			c-0.2-0.4-0.5-0.8-0.7-1.2c-0.7-1.3-1.6-2.1-3.1-1.4c-0.7,0.3-1.2,0.9-1.8,1.3c-0.3,0.2-0.7,0.5-1,0.8c0,0.1-0.2,0.1-0.2,0.2
			c0.3-0.2,0.4,0.1-0.1-0.3c-0.7-0.5-1.4-1-2-1.5c-0.5-0.4-1-0.9-1.7-0.9c-1.4-0.1-2.1,1.3-3,2c-0.2,0.2-0.5,0.4-0.7,0.5
			c-0.3,0.2-0.7,0.2-0.2,0.4c-0.2-0.1-0.3-0.3-0.5-0.5c-0.5-0.6-1-1.3-1.5-1.9c-1-1.1-2.3-1.7-3.6-0.6c-0.5,0.5-0.8,1.1-1.1,1.7
			c-0.2,0.3-0.3,0.7-0.5,1c-0.1,0.1-0.1,0.2-0.2,0.3c-0.2,0.3-0.1,0.1,0,0.1c-0.9-0.3-2.6,1-1.3,1.4c1.3,0.4,2.6-0.1,3.3-1.3
			c0.3-0.5,0.6-1.1,0.8-1.7c0.1-0.2,0.4-0.5,0.4-0.7c0,0,0.1-0.1,0.1-0.1l-0.6,0.1c0,0,0.4,0.4,0.4,0.4c0.9,0.9,1.5,2.4,2.7,3
			c1.5,0.7,3.3-0.8,4.3-1.8c0.2-0.2,1.2-1,1.1-1.2c-0.3,0.1-0.7,0.1-1,0.2c0.1,0,0.1,0.1,0.2,0.1c0.1,0.1,0.3,0.2,0.5,0.3
			c0.4,0.3,0.7,0.6,1.1,0.8c1.2,0.9,2.5,1.9,4,1.1c0.6-0.3,1.2-0.8,1.7-1.3c0.3-0.2,0.6-0.5,0.9-0.7c0,0,0.4-0.3,0.4-0.3
			c-0.6-0.2-0.8-0.2-0.6,0.1c0,0.1,0.1,0.1,0.1,0.2c0.1,0.6,0.8,1.4,1.2,1.9c0.3,0.5,0.7,1,1.3,1.1c0.9,0.1,1.7-0.2,2.3-0.7
			c0.4-0.3,0.8-0.6,1.2-0.9c-0.3,0.2-0.4-0.2-0.2,0c0.1,0.1,0.3,0.3,0.4,0.4c0.9,0.9,1.7,2,2.4,3C56.6,68.6,58.7,67.8,58.1,66.9"/>
		<path class="st4" d="M42.2,72.1c0.4,6.3,0.9,12.7,2.1,18.8c0.2,1.1,0.4,2.7,1.3,3.5c0.6,0.6,2.7-0.2,2-0.9c-0.7-0.7-0.8-2-1-2.9
			c-0.4-1.8-0.7-3.6-0.9-5.4c-0.5-3.7-0.8-7.5-1.1-11.2c-0.1-0.8-0.1-1.7-0.2-2.5C44.3,70.6,42.1,71.1,42.2,72.1"/>
		<path class="st4" d="M34.6,88.8c0.2-0.2,0,0,0.1-0.1c0.2-0.1,0.3-0.3,0.5-0.4c0.4-0.3,0.9-0.7,1.3-1c1.3-0.9,2.6-1.9,3.8-2.8
			c2.9-2,5.8-4,8.9-5.6c0.6-0.3,1.2-0.6,1.9-0.9c0.1,0,0.3-0.1,0.6-0.2c0.1,0,0,0.1,0.1,0c0,0,0.1,0-0.1,0c0.5,0.1,1.2,0,1.5-0.4
			c0.3-0.3,0.3-0.8-0.3-0.9c-1.2-0.2-2.4,0.3-3.5,0.7c-1.5,0.7-3,1.6-4.4,2.4c-3.2,2-6.4,4.1-9.4,6.4c-1,0.7-2,1.4-2.8,2.2
			c-0.4,0.3-0.2,0.8,0.3,0.9C33.6,89.4,34.2,89.1,34.6,88.8"/>
		<path class="st4" d="M34.5,78.7c1.7,0.4,3.3,1,4.9,1.6c3.1,1.2,6.2,2.7,8.8,4.9c1.3,1.2,2.5,2.6,3.1,4.3c0.3,0.9,2.5,0.3,2.2-0.6
			c-1.2-3.3-4.1-5.6-7-7.2c-2.7-1.6-5.7-2.8-8.8-3.7c-0.6-0.2-1.3-0.4-1.9-0.6c-0.5-0.1-1.2,0-1.5,0.4C33.9,78.1,34,78.5,34.5,78.7"
			/>
		<path class="st1" d="M83.4,59.3l1-10.5l8.3,3.3c0.3,0.1,0.4,0.6,0.2,0.8l-7.2,7.3C84.8,61.1,83.4,60.5,83.4,59.3"/>
		<path class="st4" d="M84.5,59.2c0.3-3.1,0.6-6.1,0.9-9.2c0-0.4,0.1-0.9,0.1-1.3c-0.6,0.3-1.2,0.5-1.7,0.8c2.7,1.1,5.4,2.1,8.1,3.2
			c0.1,0.1,0.4,0.1,0.1,0.1c0,0,0.1-0.1,0,0c0,0-0.1,0.1-0.1,0.1c-0.4,0.4-0.8,0.8-1.2,1.3c-1.3,1.4-2.7,2.7-4,4
			c-0.5,0.5-1.1,1.1-1.6,1.6c-0.1,0.1-0.1,0.1-0.2,0.2c-0.1,0.1,0,0.1,0,0c0.1-0.2,0.2,0.1,0-0.1C84.7,59.7,84.5,59.5,84.5,59.2
			c0-0.5-0.5-0.7-1-0.6c-0.4,0-1.2,0.3-1.2,0.8c0.1,1.8,2,2.4,3.5,1.7c0.6-0.3,1-0.7,1.4-1.2l4.2-4.3c0.6-0.6,1.2-1.2,1.8-1.9
			c0.4-0.4,1-0.9,0.9-1.5c-0.1-0.7-0.9-0.9-1.5-1.1c-0.9-0.3-1.7-0.7-2.6-1c-1.7-0.7-3.3-1.3-5-2c-0.5-0.2-1.7,0.1-1.7,0.8
			C83,52,82.7,55,82.4,58.1c0,0.4-0.1,0.9-0.1,1.3C82.2,60.4,84.4,60.1,84.5,59.2"/>
		<path class="st4" d="M96.3,21.7l0.7-2.3c0.2-0.9,0.6-1.8,0.1-2.6c-0.6-1.1-2-1.5-3.2-1.5c-1.6,0-3.6,0.6-4.4,2.1
			c-1.5,2.9-2.7,5.9-4.1,8.9c-0.1,0.2-0.2,0.3-0.4,0.5c-0.2,0.2-0.6,0.2-0.9,0.2h-1.3c-0.7,0-1.5,0.2-2,0.5
			c-0.4,0.3-0.4,1.1,0.2,1.1c2.2,0,5.2,0.3,6.6-1.8c0.7-1,1.1-2.2,1.6-3.3c0.8-1.7,1.6-3.5,2.4-5.2c0.2-0.5,1-1,1.5-0.9
			c1.3,0.3,1.3,1.2,1,2.3c-0.2,0.8-0.5,1.7-0.7,2.5C93.2,22.8,96,22.4,96.3,21.7"/>
		<path class="st1" d="M104.5,24.8l-10-3.8l2.9-7.7c0.8-2.2,3.2-3.3,5.4-2.4l2.2,0.8c2.2,0.8,3.3,3.2,2.5,5.4L104.5,24.8z"/>
		<path class="st4" d="M105.4,24.3c-3.3-1.3-6.7-2.5-10-3.8l0.2,0.4c0.6-1.6,1.2-3.2,1.8-4.7c0.6-1.5,1.1-3.9,2.6-4.7
			c1-0.5,2,0,3,0.3c1.2,0.4,2.3,0.8,3,1.9c1.3,1.9,0.3,3.8-0.4,5.7l-2.1,5.5c-0.2,0.5,0.7,0.5,0.9,0.4c0.4-0.1,1.1-0.3,1.2-0.7
			l2-5.3c0.3-0.8,0.6-1.5,0.9-2.3c0.5-1.3,0.4-2.8-0.4-4c-0.8-1.2-2-1.7-3.3-2.2c-1.3-0.5-2.6-0.9-4-0.7c-1.8,0.3-3.5,1.3-4.3,3
			c-0.3,0.6-0.5,1.3-0.8,1.9c-0.8,2-1.5,4.1-2.3,6.1c-0.1,0.2,0.1,0.3,0.2,0.4c3.3,1.3,6.7,2.5,10,3.8c0.5,0.2,1.1,0.1,1.5-0.2
			C105.4,25,105.9,24.5,105.4,24.3"/>
		<path class="st4" d="M93,52.9l-8.7-4.1l4-12l7.1-18.4c0,0,2.9,2,3.9,2.4c1.5,0.6,6.1,1.2,6.1,1.2l-8.5,21.9L93,52.9z"/>
		<path class="st4" d="M93.9,52.4c-2.9-1.4-5.8-2.7-8.7-4.1c0.1,0.1,0.1,0.2,0.2,0.3c1.3-4,2.6-8.1,4-12c1.6-4.4,3.3-8.6,5-13
			c0.7-1.8,1.4-3.7,2.1-5.5c-0.7,0.2-1.4,0.4-2.1,0.6c1.5,1,3.1,2.3,4.8,2.8c1.8,0.5,3.7,0.8,5.6,1c-0.1-0.1-0.3-0.3-0.4-0.4
			c-1.7,4.3-3.3,8.5-5,12.8c-1.4,3.6-2.7,7.2-4.2,10.7c-1.1,2.5-2.2,5-3.3,7.5c-0.3,0.6,1.9,0.4,2.2-0.3c1.5-3.3,3.1-6.7,4.4-10.1
			c2-5.3,4.1-10.5,6.1-15.8c0.7-1.7,1.3-3.4,2-5.1c0.1-0.2-0.2-0.4-0.4-0.4c-1.7-0.2-3.5-0.5-5.1-0.9c-1.7-0.4-3.2-1.6-4.6-2.6
			c-0.5-0.4-1.9-0.1-2.1,0.6c-3,7.8-6.1,15.5-8.8,23.4c-0.8,2.4-1.6,4.7-2.4,7.1c-0.1,0.2,0.1,0.3,0.2,0.3c2.9,1.4,5.8,2.7,8.7,4.1
			C92.7,53.7,94.7,52.8,93.9,52.4"/>
	</g>
</g>
</svg>
