<?xml version="1.0" encoding="utf-8"?>
<!-- Generator: Adobe Illustrator 22.1.0, SVG Export Plug-In . SVG Version: 6.00 Build 0)  -->
<svg version="1.1" id="Layer_1" xmlns="http://www.w3.org/2000/svg" xmlns:xlink="http://www.w3.org/1999/xlink" x="0px" y="0px"
	 viewBox="0 0 519.9 613.9" style="enable-background:new 0 0 519.9 613.9;"  xml:space="preserve">
<style type="text/css">
	.st0{fill:none;stroke:#231F20;stroke-width:0.75;stroke-miterlimit:10;}
	.st1{fill:#FFFFFF;}
	.st2{fill:#F05925;}
</style>
<line class="st0" x1="1.2" y1="96" x2="513" y2="96"/>
<line class="st0" x1="1.2" y1="64" x2="513" y2="64"/>
<line class="st0" x1="1.2" y1="32" x2="513" y2="32"/>
<line class="st0" x1="1.2" y1="0" x2="513" y2="0"/>
<line class="st0" x1="1.2" y1="128" x2="513" y2="128"/>
<line class="st0" x1="1.2" y1="160" x2="513" y2="160"/>
<line class="st0" x1="1.2" y1="192" x2="513" y2="192"/>
<line class="st0" x1="1.2" y1="224" x2="513" y2="224"/>
<line class="st0" x1="1.2" y1="256" x2="513" y2="256"/>
<line class="st0" x1="1.2" y1="288" x2="513" y2="288"/>
<line class="st0" x1="1.2" y1="320" x2="513" y2="320"/>
<line class="st0" x1="1.2" y1="352.1" x2="513" y2="352.1"/>
<line class="st0" x1="1.2" y1="384.1" x2="513" y2="384.1"/>
<line class="st0" x1="1.2" y1="416.1" x2="513" y2="416.1"/>
<line class="st0" x1="1.2" y1="448.1" x2="513" y2="448.1"/>
<line class="st0" x1="1.2" y1="480.1" x2="513" y2="480.1"/>
<line class="st0" x1="1.2" y1="512.1" x2="513" y2="512.1"/>
<line class="st0" x1="1.2" y1="544.1" x2="513" y2="544.1"/>
<line class="st0" x1="1.2" y1="576.1" x2="513" y2="576.1"/>
<line class="st0" x1="1.2" y1="608.1" x2="513" y2="608.1"/>
<rect x="425.8" y="565.1" class="st1" width="89.1" height="58.8"/>
<path class="st1" d="M490.5,605.3l1.8-4.7l3.4,2.6c0.1,0.1,0.1,0.3,0,0.4l-4.3,2.5C490.9,606.3,490.4,605.8,490.5,605.3"/>
<path class="st2" d="M491,605.2c0.5-1.4,1.1-2.7,1.6-4.1c0.1-0.2,0.2-0.4,0.2-0.6l-1,0.3c1.1,0.8,2.2,1.7,3.3,2.5
	c0,0,0.1,0.1,0.1,0.1c0,0,0,0.1,0,0.1c0,0,0.1,0.1,0,0c0,0,0.1,0,0,0c0,0,0,0-0.1,0c-0.2,0.1-0.5,0.3-0.7,0.4
	c-0.8,0.4-1.6,0.9-2.3,1.3c-0.3,0.2-0.7,0.4-1,0.6c0,0-0.2,0.1-0.2,0.1c0-0.1,0.2,0,0.2-0.1c0,0-0.1-0.1-0.2-0.1
	C491,605.6,491,605.4,491,605.2c0.1-0.4-1-0.2-1,0.1c-0.1,0.4,0,0.7,0.3,0.9c0.4,0.2,0.9,0.2,1.3,0.1c0.2-0.1,0.4-0.2,0.6-0.3
	c0.8-0.5,1.7-1,2.5-1.4c0.3-0.2,0.7-0.4,1-0.6c0.3-0.1,0.6-0.3,0.6-0.7c0-0.3-0.3-0.4-0.5-0.6c-0.4-0.3-0.7-0.5-1.1-0.8
	c-0.7-0.5-1.3-1-2-1.5c-0.3-0.2-0.9-0.1-1,0.3c-0.5,1.4-1.1,2.7-1.6,4.1c-0.1,0.2-0.2,0.4-0.2,0.6c-0.1,0.2,0.3,0.3,0.5,0.2
	C490.7,605.6,491,605.5,491,605.2"/>
<path class="st2" d="M501.3,589.6c0.2-0.3,0.4-0.7,0.6-1c0.2-0.4,0.5-0.7,0.4-1.2c-0.1-0.6-0.7-1-1.3-1.1c-0.7-0.2-1.8-0.2-2.3,0.4
	c-1.1,1.1-2,2.4-3,3.6c-0.1,0.1-0.1,0.1-0.2,0.2c-0.1,0.1-0.3,0-0.4,0c-0.2-0.1-0.4-0.1-0.6-0.2c-0.3-0.1-0.7-0.1-1,0
	c-0.2,0.1-0.3,0.5,0,0.6c1,0.3,2.4,0.8,3.3,0c0.4-0.4,0.8-0.9,1.2-1.3c0.6-0.7,1.2-1.4,1.8-2.1c0.2-0.2,0.6-0.3,0.8-0.2
	c0.6,0.3,0.4,0.7,0.2,1.2c-0.2,0.4-0.4,0.7-0.7,1.1C499.8,589.7,501.1,589.9,501.3,589.6"/>
<path class="st1" d="M504.7,592.1l-4.1-3l2.3-3.2c0.7-0.9,1.9-1.1,2.8-0.4l0.9,0.7c0.9,0.7,1.1,1.9,0.4,2.8L504.7,592.1z"/>
<path class="st2" d="M505.2,591.9c-1.4-1-2.8-2-4.1-3c0,0.1,0,0.1,0,0.2c0.5-0.6,0.9-1.3,1.4-1.9c0.3-0.4,0.5-0.7,0.8-1.1
	c0.2-0.3,0.5-0.6,0.9-0.7c0.6-0.1,1,0.3,1.5,0.6c0.5,0.3,1,0.7,1.2,1.3c0.2,0.6,0.1,1.2-0.3,1.7c-0.2,0.3-0.4,0.6-0.6,0.9
	c-0.6,0.8-1.1,1.5-1.7,2.2c-0.1,0.2,0.1,0.3,0.3,0.3c0.2,0,0.5-0.1,0.7-0.3c0.5-0.7,1.1-1.4,1.6-2.2c0.6-0.9,1.4-1.7,1.1-2.9
	c-0.2-0.7-0.7-1-1.2-1.4c-0.5-0.4-1-0.7-1.7-0.8c-0.9-0.1-1.9,0.3-2.5,1c-0.2,0.2-0.4,0.5-0.6,0.8c-0.6,0.8-1.2,1.7-1.8,2.5
	c0,0.1-0.1,0.2,0,0.2l4.1,3c0.2,0.1,0.5,0.1,0.7,0C505,592.3,505.4,592,505.2,591.9"/>
<path class="st2" d="M495.8,603.6l-3.5-3l3.4-5l5.7-7.6c0,0,1.1,1.3,1.5,1.6c0.6,0.5,2.7,1.4,2.7,1.4l-6.7,9L495.8,603.6z"/>
<path class="st2" d="M496.3,603.4c-1.2-1-2.3-2-3.5-3c0,0.1,0,0.1,0,0.2c1.1-1.7,2.2-3.4,3.4-5c1.3-1.8,2.7-3.6,4-5.3
	c0.6-0.8,1.1-1.5,1.7-2.3c-0.3,0.1-0.6,0.1-1,0.2c0.5,0.7,1.1,1.4,1.8,1.9c0.8,0.5,1.6,0.8,2.4,1.2l-0.1-0.2
	c-1.3,1.8-2.6,3.5-3.9,5.3c-1.1,1.5-2.2,3-3.3,4.4c-0.8,1-1.7,2-2.5,3c-0.2,0.2,0.1,0.3,0.3,0.3c0.2,0,0.5-0.1,0.7-0.3
	c1.1-1.4,2.3-2.7,3.4-4.1c1.6-2.2,3.2-4.3,4.9-6.5c0.5-0.7,1-1.4,1.6-2.1c0.1-0.1,0-0.2-0.1-0.2c-0.8-0.3-1.6-0.7-2.3-1.1
	s-1.3-1.2-1.8-1.8c-0.2-0.2-0.8,0-1,0.2c-2.4,3.2-4.8,6.4-7.1,9.7c-0.7,1-1.3,2-2,3c0,0.1-0.1,0.1,0,0.2l3.5,3
	C495.6,604,496.5,603.6,496.3,603.4"/>
<path class="st2" d="M448.5,606.7c0.4-0.4,0.9-0.8,1.4-1.2c0.4-0.3,0.7-0.6,1.1-0.8c0.2-0.1,0.4-0.2,0.6-0.3c-0.4,0.2-0.5-0.1,0,0.2
	c1.5,0.9,3.2,2.6,5.1,2.2c0.8-0.1,1.4-0.5,1.9-1.1c0.2-0.3,0.4-0.7,0.6-1c0.2-0.4,0.9-1.1,1-1.5c0,0,0,0,0.1-0.1
	c-1,0-1.3,0.1-0.9,0.4c0,0.1,0.3,0.4,0.4,0.5c0.3,0.4,0.5,0.8,0.8,1.2c0.4,0.7,0.8,1.5,1.5,1.9c1.5,1,3.1-0.4,3.8-1.6
	c0.5-0.8,0.8-1.6,1.4-2.4c0.1-0.1,0.4-0.4,0.4-0.6c0,0,0.1-0.1,0.1-0.1c-0.8,0.1-1,0.2-0.7,0.3c0.1,0.2,1,0.6,1.3,0.9
	c1.3,1.1,2.6,3,4.3,3.1c2,0.2,3.6-1.5,5-2.6c0.3-0.2,1-0.9,1.3-0.9c-0.5,0,0.1,0.2,0.2,0.2c0.2,0.1,0.4,0.3,0.5,0.4
	c0.8,0.7,1.5,1.5,2.3,2.3c1.6,1.6,3.3,2.4,5.5,1.6c0.3-0.1,0.9-0.4,0.6-0.8c-0.2-0.3-1.2,0-1.4,0c-0.6,0.2-1.9-1-2.3-1.3
	c-0.8-0.7-1.4-1.5-2.2-2.2c-1.3-1.2-2.6-1.7-4.3-0.9c-0.9,0.4-1.7,1.1-2.5,1.7c-0.4,0.3-0.8,0.6-1.2,0.9c-0.2,0.1-0.5,0.4-0.7,0.4
	c0.4-0.1,0,0-0.2-0.2c-1.5-1.1-2.8-3-4.5-3.7c-1.7-0.7-3.1,0.4-3.9,1.8c-0.3,0.5-0.5,1-0.8,1.5c-0.2,0.4-0.6,0.8-0.7,1.2
	c-0.1,0.3-0.7,0.5,0.2,0.2c0.8-0.2,0.3,0,0.2-0.3c-0.2-0.4-0.7-0.9-0.9-1.3c-0.9-1.4-1.7-3-3.6-2.3c-0.8,0.3-1.3,0.9-1.7,1.6
	c-0.2,0.4-0.5,0.8-0.7,1.2c-0.1,0.1-0.4,0.5-0.4,0.6c0.5-0.1,0.6-0.2,0.3-0.2c-0.1,0-0.2-0.1-0.3-0.1c-1.6-1.2-3.6-2.7-5.7-1.9
	c-1.6,0.6-3,2-4.2,3.2c-0.4,0.4,0.3,0.5,0.6,0.5C447.6,607.3,448.1,607.1,448.5,606.7"/>
</svg>
